<svg width="52" height="52" viewBox="0 0 52 52" xmlns="http://www.w3.org/2000/svg">
  <path fill="rgba(255,0,0,0)" opacity=".5" d="M0 0h52v52H0z"/>
  <path d="M14.79 21.72a.48.48 0 0 1-.19-.04l-2.92-1.24a.48.48 0 0 1 .38-.88l2.92 1.24a.48.48 0 0 1-.2.92Zm25.34 10.76a.47.47 0 0 1-.19-.04l-2.92-1.24a.48.48 0 0 1 .38-.88l2.92 1.24a.48.48 0 0 1-.2.92Zm-28.36-.25a.48.48 0 0 1-.18-.92l2.94-1.2a.48.48 0 1 1 .36.9l-2.94 1.18a.48.48 0 0 1-.18.04Zm25.52-10.31a.48.48 0 0 1-.18-.93l2.94-1.18a.48.48 0 0 1 .36.89l-2.94 1.18a.48.48 0 0 1-.18.04ZM20.01 40.6a.47.47 0 0 1-.2-.04.48.48 0 0 1-.24-.63l1.23-2.91a.48.48 0 1 1 .89.37l-1.24 2.92a.48.48 0 0 1-.44.29Zm10.75-25.34a.48.48 0 0 1-.44-.67l1.24-2.92a.48.48 0 1 1 .88.38l-1.24 2.92a.48.48 0 0 1-.44.29Zm.99 25.44a.48.48 0 0 1-.44-.3l-1.2-2.94a.48.48 0 1 1 .9-.36l1.18 2.94a.48.48 0 0 1-.26.63.48.48 0 0 1-.18.03ZM21.44 15.2a.48.48 0 0 1-.45-.3l-1.18-2.94a.48.48 0 0 1 .88-.36l1.2 2.94a.48.48 0 0 1-.45.66Zm-4.05 2.68a.48.48 0 0 1-.34-.14l-4.49-4.49a.48.48 0 0 1 .68-.68l4.49 4.49a.48.48 0 0 1-.34.82Zm21.7 21.7a.48.48 0 0 1-.33-.13l-4.49-4.49a.48.48 0 1 1 .68-.68l4.48 4.49a.48.48 0 0 1-.33.82Zm-25.27-13.1H7.48a.48.48 0 0 1 0-.95h6.34a.48.48 0 0 1 0 .96Zm30.7 0h-6.34a.48.48 0 1 1 0-.95h6.34a.48.48 0 0 1 0 .96ZM12.9 39.58a.48.48 0 0 1-.34-.81l4.49-4.49a.48.48 0 0 1 .68.68l-4.49 4.49a.47.47 0 0 1-.34.14Zm21.71-21.7a.48.48 0 0 1-.34-.82l4.49-4.49a.48.48 0 0 1 .68.68l-4.49 4.49a.48.48 0 0 1-.34.14ZM26 45a.48.48 0 0 1-.48-.48v-6.34a.48.48 0 1 1 .96 0v6.34A.48.48 0 0 1 26 45Zm0-30.7a.48.48 0 0 1-.48-.48V7.48a.48.48 0 0 1 .96 0v6.34a.48.48 0 0 1-.48.48ZM34.94 26A8.94 8.94 0 1 1 26 17.06 8.94 8.94 0 0 1 34.94 26" fill="#f8d134"/>
</svg>
