<svg xmlns="http://www.w3.org/2000/svg" width="34" height="34" viewBox="0 0 34 34"><defs><style>.a{fill:#747474;opacity:0;}.b{fill:#dc003f;}</style></defs><rect class="a" width="34" height="34"/><path class="b" d="M21.608,24.48V9.346C25.154,8.841,28,7.665,28,5.5a.5.5,0,0,0-1,0c0,2.166-5.184,3.152-10,3.152S7,7.666,7,5.5a.5.5,0,0,0-1,0c0,2.165,2.846,3.341,6.391,3.846V24.48C8.846,24.985,6,26.161,6,28.326a.5.5,0,0,0,1,0c0-2.166,5.184-3.152,10-3.152s10,.986,10,3.152a.5.5,0,0,0,1,0C28,26.161,25.154,24.985,21.608,24.48Zm-8.217-.123V9.469A34.689,34.689,0,0,0,17,9.652a34.961,34.961,0,0,0,3.608-.183V24.357a35.669,35.669,0,0,0-7.217,0Z"/></svg>