<svg xmlns="http://www.w3.org/2000/svg" width="34" height="34" viewBox="0 0 34 34"><defs><style>.a{fill:#747474;opacity:0;}.b{fill:#dc003f;}</style></defs><rect class="a" width="34" height="34"/><path class="b" d="M28.5,7.065a2.772,2.772,0,0,0-5.449-.489,6.856,6.856,0,0,1-6.538,5.443A6.866,6.866,0,0,1,9.948,6.566,2.678,2.678,0,0,0,7.257,4.5,2.67,2.67,0,0,0,4.5,7.1v.786a.5.5,0,0,0,1,0v-.77A1.7,1.7,0,0,1,7.263,5.5,1.691,1.691,0,0,1,8.972,6.785a7.851,7.851,0,0,0,4.822,5.686,8.462,8.462,0,1,0,5.417,0A7.835,7.835,0,0,0,24.022,6.81a1.772,1.772,0,0,1,2.869-.882A1.743,1.743,0,0,1,27.5,7.1v.786a.5.5,0,0,0,1,0ZM23.962,20.48A7.462,7.462,0,1,1,16.5,13.019,7.471,7.471,0,0,1,23.962,20.48Z" transform="translate(0.5 0.503)"/></svg>