<svg xmlns="http://www.w3.org/2000/svg" viewBox="0 0 34 34"><path d="M30.33 21.351a4.073 4.073 0 0 0-.511-2.065 15.163 15.163 0 0 0-7.323-6.184c-.409 1.38-1.673 2.396-3.183 2.398h-.02a3.272 3.272 0 0 1-2.272-.936c-.6.575-1.408.935-2.302.936h-.005c-1.51-.003-2.774-1.02-3.183-2.398a15.177 15.177 0 0 0-7.327 6.19 4.376 4.376 0 0 0-.507 2.059 4.1 4.1 0 0 0 1.174 2.934 4.103 4.103 0 0 0 2.906 1.242h.048a4.115 4.115 0 0 0 4.124-3.97l.003-.082v-.014h.93v.036l.002.06a4.124 4.124 0 0 0 4.326 3.92 4.115 4.115 0 0 0 3.921-3.92l.005-.096h.93l.006.095a4.123 4.123 0 0 0 4.327 3.92 4.122 4.122 0 0 0 3.925-4.125ZM7.62 19.993h-.73v-.728h.728v.728Zm4.017-1.148h-.728v-.728h.728v.728Zm4.02 1.148h-.729v-.728h.728v.728Zm3.443-1.148h-.728v-.728h.728v.728Zm4.02 1.148h-.729v-.728h.728v.728Zm4.017-1.148h-.728v-.728h.728v.728ZM14.695 5.84l-.212-.038.092.193a7.43 7.43 0 0 1 .601 2.883c.71.1 1.35.414 1.844.889a3.256 3.256 0 0 1 1.74-.88 5.601 5.601 0 0 0-4.065-3.047Z" fill="none"/><path d="M19.311 9.759h-.017a2.36 2.36 0 0 0-1.707.739c.288.492.465 1.058.466 1.668a3.29 3.29 0 0 1-.466 1.667c.447.466 1.06.738 1.707.738h.016a2.411 2.411 0 0 0 2.407-2.406 2.412 2.412 0 0 0-2.406-2.406Zm-9.22 20.308-.877-1.94.664-.3 1.013 2.243h2.646l-.88-1.943.664-.3 1.015 2.243h2.89v-2.194h.728v2.194h2.323l1.105-2.345.658.31-.958 2.035h2.065l1.105-2.345.658.31-.956 2.03a2.4 2.4 0 0 0 2.234-1.635l.704-2.093c-.228.03-.454.07-.69.07a5.054 5.054 0 0 1-4.594-2.94 5.054 5.054 0 0 1-4.593 2.94 5.053 5.053 0 0 1-4.59-2.935 5.053 5.053 0 0 1-4.594 2.935c-.236 0-.462-.04-.69-.07l.707 2.1a2.404 2.404 0 0 0 2.243 1.63Zm2.222-17.902a2.413 2.413 0 0 0 2.406 2.406 2.412 2.412 0 0 0 2.402-2.406 2.414 2.414 0 0 0-2.407-2.406 2.414 2.414 0 0 0-2.407 2.406Z" fill="none"/><path d="M22.647 12.16c-.003-1.675-1.253-3.053-2.866-3.284a6.54 6.54 0 0 0-2.39-2.939 6.54 6.54 0 0 0-3.82-1.124h-.983l.63.761c.663.795.977 1.83 1.028 3.305-1.607.237-2.85 1.61-2.855 3.28a16.147 16.147 0 0 0-7.977 6.664l-.002.005a5.284 5.284 0 0 0-.63 2.523c.002 2.164 1.38 4 3.297 4.72l.895 2.669a3.333 3.333 0 0 0 3.155 2.26h13.778a3.33 3.33 0 0 0 3.16-2.272l.894-2.656c1.917-.72 3.295-2.556 3.298-4.718a4.998 4.998 0 0 0-.64-2.54 16.125 16.125 0 0 0-7.971-6.654Zm3.551 13.321a4.123 4.123 0 0 1-4.12-3.925l-.005-.095h-.93l-.005.095a4.115 4.115 0 0 1-4.126 3.926 4.124 4.124 0 0 1-4.12-3.926l-.004-.06.002-.035h-.931v.014l-.002.082a4.116 4.116 0 0 1-4.125 3.97h-.047a4.103 4.103 0 0 1-2.906-1.242 4.1 4.1 0 0 1-1.176-2.934 4.376 4.376 0 0 1 .507-2.058 15.176 15.176 0 0 1 7.327-6.191c.41 1.379 1.673 2.395 3.182 2.398a3.323 3.323 0 0 0 2.297-.936 3.27 3.27 0 0 0 2.27.936h.02c1.51-.002 2.776-1.02 3.184-2.398a15.163 15.163 0 0 1 7.323 6.184c.35.63.527 1.343.512 2.065a4.122 4.122 0 0 1-4.132 4.13Zm-6.887-10.91h-.017c-.647 0-1.26-.272-1.707-.738a3.296 3.296 0 0 0 .466-1.667 3.3 3.3 0 0 0-.466-1.668 2.364 2.364 0 0 1 1.707-.739h.017a2.413 2.413 0 0 1 2.406 2.406 2.411 2.411 0 0 1-2.406 2.406Zm-2.29-4.805a3.321 3.321 0 0 0-1.845-.889 7.44 7.44 0 0 0-.6-2.883l-.093-.193.212.038a5.601 5.601 0 0 1 4.066 3.047 3.257 3.257 0 0 0-1.74.88Zm.105 2.4a2.412 2.412 0 0 1-2.407 2.405 2.412 2.412 0 0 1-2.41-2.406 2.414 2.414 0 0 1 2.41-2.405 2.414 2.414 0 0 1 2.404 2.406Zm-9.295 14.24a5.053 5.053 0 0 0 4.593-2.935 5.053 5.053 0 0 0 4.591 2.935 5.054 5.054 0 0 0 4.593-2.94 5.054 5.054 0 0 0 4.594 2.94c.236 0 .462-.039.69-.07l-.705 2.093a2.399 2.399 0 0 1-2.234 1.636l.957-2.031-.659-.31-1.104 2.345h-2.065l.958-2.035-.659-.31-1.104 2.345h-2.323v-2.194h-.728v2.194h-2.89l-1.015-2.243-.663.3.88 1.943H10.89l-1.013-2.248-.664.3.877 1.941a2.404 2.404 0 0 1-2.243-1.629l-.707-2.102c.228.032.454.07.69.07ZM26.343 4.618l2.046-2.042.514.515-2.045 2.043zM.505 11.22l.216-.696 2.933.91-.215.694zm29.876.122 2.929-.766.184.704-2.928.766zM4.547 3.08l.515-.514 2.03 2.03-.515.515z" fill="#4fd675"/><path d="M6.891 19.265h.728v.728h-.728zm4.018-1.148h.728v.728h-.728zm4.019 1.148h.728v.728h-.728zm3.444-1.148h.728v.728h-.728zm4.019 1.148h.728v.728h-.728zm4.018-1.148h.728v.728h-.728z" fill="#4fd675"/><path d="M0 0h34v34H0z" fill="none"/></svg>