<svg xmlns="http://www.w3.org/2000/svg" width="34" height="34" viewBox="0 0 34 34">
  <g id="zielona" transform="translate(-393 -7830)">
    <rect id="Rectangle_420-9" data-name="Rectangle 420-9" width="34" height="34" transform="translate(393 7830)" fill="rgba(197,5,60,0)"/>
    <g id="Group_5852" data-name="Group 5852" transform="translate(398.913 7833.001)">
      <path id="Path_18377" data-name="Path 18377" d="M19.95,1.487,18.96,0l.074,1.784c0,.05.1,4.927-8.512,5.945-4.917.58-6.652,3.253-7.242,5.393-.945,3.428.571,7.7,2.559,9.227l.4.3.61-.792-.4-.306c-1.5-1.153-3.1-4.908-2.2-8.168.729-2.645,2.94-4.258,6.395-4.666,6.5-.768,8.508-3.627,9.125-5.441,1.85,4.477,1.53,13.437-1.637,17.987a6.311,6.311,0,0,1-7.145,2.793l-.487-.115-.23.973.486.115a8.894,8.894,0,0,0,2.047.25,7.3,7.3,0,0,0,6.15-3.444c3.759-5.4,3.752-16.221,1-20.353" fill="#3093d3" stroke="rgba(0,0,0,0)" stroke-width="1"/>
      <path id="Path_18378" data-name="Path 18378" d="M14.707,15.153l.465-.182-.364-.931-.466.182C11.365,15.388,9.755,18.887,8.2,22.27c-1.943,4.222-3.624,7.868-7.448,6.8L.268,28.94,0,29.9l.481.134a5.846,5.846,0,0,0,1.58.231c3.558,0,5.327-3.846,7.045-7.58,1.475-3.2,3-6.515,5.6-7.535" fill="#3093d3" stroke="rgba(0,0,0,0)" stroke-width="1"/>
    </g>
  </g>
</svg>
