<svg xmlns="http://www.w3.org/2000/svg" width="34" height="34" viewBox="0 0 34 34">
  <g id="gry" transform="translate(-393 -7830)">
    <rect id="Rectangle_420-9" data-name="Rectangle 420-9" width="34" height="34" transform="translate(393 7830)" fill="rgba(197,5,60,0)"/>
    <g id="Group_5870" data-name="Group 5870" transform="translate(394.928 7832.874)">
      <path id="Path_18414" data-name="Path 18414" d="M10.362,17.267a.427.427,0,0,0-.427-.426h-1.5v-1.5a.427.427,0,0,0-.853,0v1.5h-1.5a.427.427,0,1,0,0,.853h1.5v1.5a.427.427,0,1,0,.853,0v-1.5h1.5a.427.427,0,0,0,.427-.427" fill="#4da3dc"/>
      <path id="Path_18415" data-name="Path 18415" d="M9.935,16.591H8.681V15.336a.677.677,0,1,0-1.354,0v1.255H6.074a.677.677,0,1,0,0,1.353H7.327V19.2a.677.677,0,1,0,1.354,0V17.944H9.935a.677.677,0,1,0,0-1.353M8.431,19.2a.427.427,0,1,1-.854,0v-1.5h-1.5a.427.427,0,1,1,0-.853h1.5v-1.5a.427.427,0,1,1,.854,0v1.5h1.5a.427.427,0,1,1,0,.853h-1.5Z" fill="#4da3dc"/>
      <path id="Path_18416" data-name="Path 18416" d="M23.682,16.841h-1.5v-1.5a.426.426,0,1,0-.853,0v1.5H19.82a.427.427,0,1,0,0,.853h1.505v1.5a.426.426,0,1,0,.853,0v-1.5h1.5a.427.427,0,1,0,0-.853" fill="#4da3dc"/>
      <path id="Path_18417" data-name="Path 18417" d="M23.682,16.591H22.428V15.337a.676.676,0,1,0-1.353,0v1.254H19.82a.677.677,0,1,0,0,1.353h1.255V19.2a.676.676,0,1,0,1.353,0V17.944h1.254a.677.677,0,1,0,0-1.353m0,1.1h-1.5v1.5a.426.426,0,1,1-.853,0v-1.5H19.82a.427.427,0,1,1,0-.853h1.505v-1.5a.426.426,0,1,1,.853,0v1.5h1.5a.427.427,0,1,1,0,.853" fill="#4da3dc"/>
      <path id="Path_18418" data-name="Path 18418" d="M16.186,15.186H13.57a.427.427,0,0,0,0,.854h2.616a.427.427,0,0,0,0-.854" fill="#4da3dc"/>
      <path id="Path_18419" data-name="Path 18419" d="M16.186,14.935H13.57a.677.677,0,1,0,0,1.354h2.616a.677.677,0,1,0,0-1.354m0,1.1H13.57a.427.427,0,1,1,0-.854h2.616a.427.427,0,1,1,0,.854" fill="#4da3dc"/>
      <path id="Path_18420" data-name="Path 18420" d="M16.186,18.5H13.57a.427.427,0,1,0,0,.854h2.616a.427.427,0,0,0,0-.854" fill="#4da3dc"/>
      <path id="Path_18421" data-name="Path 18421" d="M16.186,18.245H13.57a.677.677,0,0,0,0,1.354h2.616a.677.677,0,0,0,0-1.354m0,1.1H13.57a.427.427,0,1,1,0-.854h2.616a.427.427,0,1,1,0,.854" fill="#4da3dc"/>
      <path id="Path_18422" data-name="Path 18422" d="M29.329,22.584c-.526-2.034-2.418-9.568-2.5-9.888a1.482,1.482,0,0,0-1.486-1.081c-.374,0-4.414,0-7.885,0h-.067l-.746-1.124a.427.427,0,0,0-.356-.191H15.3V9.786a1.4,1.4,0,0,1,1.395-1.4h4.708a2.248,2.248,0,1,0,0-4.5H8.348a1.4,1.4,0,1,1,0-2.79H23.229a.427.427,0,1,0,0-.853H8.348a2.248,2.248,0,1,0,0,4.5H21.407a1.4,1.4,0,0,1,0,2.791H16.7A2.251,2.251,0,0,0,14.45,9.786V10.3h-.986a.427.427,0,0,0-.356.191l-.746,1.124H12.3c-3.472,0-7.51,0-7.885,0A1.482,1.482,0,0,0,2.924,12.7c-.08.319-1.973,7.853-2.5,9.887A4.081,4.081,0,0,0,3,27.764a4.082,4.082,0,0,0,5.2-2.532c.221-.517.608-1.414,1.063-2.465l.033-.076H20.463l.032.076c.456,1.051.843,1.948,1.064,2.465A4.185,4.185,0,0,0,25.379,28a4.269,4.269,0,0,0,1.379-.237,4.08,4.08,0,0,0,2.571-5.18M22.344,24.9c-.244-.572-.691-1.607-1.21-2.8a.426.426,0,0,0-.391-.257H9.012a.428.428,0,0,0-.392.257c-.518,1.2-.965,2.23-1.21,2.8a3.332,3.332,0,0,1-3.035,2.249,3.415,3.415,0,0,1-1.1-.19A3.229,3.229,0,0,1,1.251,22.8c.528-2.041,2.42-9.573,2.5-9.893a.618.618,0,0,1,.662-.437l8.178,0a.425.425,0,0,0,.355-.191l.747-1.124h2.369l.746,1.124a.427.427,0,0,0,.356.191l8.177,0A.618.618,0,0,1,26,12.9c.452,1.8,1.382,5.494,2.006,7.958.209.821.383,1.5.495,1.937a3.254,3.254,0,1,1-6.16,2.1" fill="#4da3dc"/>
      <path id="Path_18423" data-name="Path 18423" d="M29.572,22.521c-.526-2.033-2.418-9.566-2.5-9.886a1.729,1.729,0,0,0-1.727-1.27c-.372,0-4.363,0-7.82,0l-.672-1.012a.675.675,0,0,0-.563-.3h-.738v-.26A1.146,1.146,0,0,1,16.7,8.641h4.708a2.5,2.5,0,1,0,0-5H8.348a1.146,1.146,0,0,1,0-2.291H23.229a.677.677,0,1,0,0-1.353H8.348a2.5,2.5,0,1,0,0,5H21.407a1.145,1.145,0,1,1,0,2.29H16.7a2.5,2.5,0,0,0-2.5,2.5v.26h-.737a.675.675,0,0,0-.564.3l-.672,1.012c-3.457,0-7.447,0-7.82,0a1.731,1.731,0,0,0-1.727,1.27c-.08.32-1.972,7.853-2.5,9.886A4.321,4.321,0,0,0,2.916,28a4.525,4.525,0,0,0,1.465.25,4.422,4.422,0,0,0,4.044-2.92c.216-.5.59-1.371,1.031-2.389H20.3c.441,1.018.815,1.884,1.031,2.389a4.426,4.426,0,0,0,4.049,2.92,4.518,4.518,0,0,0,1.46-.25,4.32,4.32,0,0,0,2.733-5.479M25.379,28a4.186,4.186,0,0,1-3.82-2.769c-.221-.517-.608-1.414-1.063-2.465l-.033-.075H9.292l-.033.075C8.8,23.817,8.417,24.714,8.2,25.231A4.1,4.1,0,0,1,.425,22.583c.526-2.033,2.418-9.567,2.5-9.887a1.483,1.483,0,0,1,1.486-1.081c.375,0,4.415,0,7.886,0h.067l.746-1.124a.429.429,0,0,1,.356-.191h.987v-.51A2.251,2.251,0,0,1,16.7,7.537h4.708a1.395,1.395,0,1,0,0-2.79H8.348a2.249,2.249,0,1,1,0-4.5H23.229a.427.427,0,1,1,0,.853H8.348a1.4,1.4,0,0,0,0,2.791H21.407a2.248,2.248,0,1,1,0,4.5H16.7a1.4,1.4,0,0,0-1.395,1.4v.51h.988a.428.428,0,0,1,.355.191l.747,1.124h.067c3.47,0,7.51,0,7.885,0A1.481,1.481,0,0,1,26.832,12.7c.08.32,1.972,7.854,2.5,9.887a4.082,4.082,0,0,1-2.572,5.181A4.294,4.294,0,0,1,25.379,28" fill="#4da3dc"/>
      <path id="Path_18424" data-name="Path 18424" d="M28.5,22.8c-.112-.432-.286-1.117-.494-1.938C27.385,18.4,26.456,14.7,26,12.9a.614.614,0,0,0-.662-.435c-.315,0-3.525,0-8.176,0a.426.426,0,0,1-.356-.191l-.746-1.124h-2.37l-.746,1.124a.427.427,0,0,1-.356.191c-4.652,0-7.861,0-8.177,0a.616.616,0,0,0-.662.437c-.081.319-1.972,7.851-2.5,9.893a3.229,3.229,0,0,0,2.021,4.158,3.409,3.409,0,0,0,1.1.19A3.332,3.332,0,0,0,7.411,24.9c.245-.572.692-1.607,1.21-2.8a.426.426,0,0,1,.391-.257H20.743a.428.428,0,0,1,.392.257c.518,1.2.965,2.23,1.21,2.8A3.254,3.254,0,1,0,28.5,22.8m-5.93,2c-.244-.572-.691-1.607-1.21-2.8a.676.676,0,0,0-.621-.407H9.012A.677.677,0,0,0,8.391,22c-.518,1.2-.965,2.231-1.21,2.8A3,3,0,1,1,1.493,22.86c.529-2.042,2.421-9.575,2.5-9.893.024-.092.111-.248.421-.249s3.525,0,8.176,0a.677.677,0,0,0,.564-.3l.672-1.013h2.1l.672,1.013a.677.677,0,0,0,.564.3c4.65,0,7.86,0,8.175,0a.657.657,0,0,1,.193.026.318.318,0,0,1,.229.221c.6,2.4,2.053,8.167,2.5,9.9A3,3,0,1,1,22.574,24.8" fill="#4da3dc"/>
    </g>
  </g>
</svg>
