<svg version="1.1" id="Layer_1" xmlns="http://www.w3.org/2000/svg" xmlns:xlink="http://www.w3.org/1999/xlink" x="0px" y="0px"
	 viewBox="0 0 74 34" style="enable-background:new 0 0 74 34;" xml:space="preserve">
	<style>
		.st2h{fill:#2889C6}
	</style>
	<g transform="translate(-1.445)">
		<defs>
			<path id="SVGID_1_" d="M1.4 0h74v34h-74z"/>
		</defs>
		<clipPath id="SVGID_2_">
			<use xlink:href="#SVGID_1_" overflow="visible"/>
		</clipPath>
		<g clip-path="url(#SVGID_2_)">
			<path class="st2h" d="M1.9 21.1h.9L5 27.5l2.1-6.4h.7l2.1 6.4 2.2-6.4h.9l-2.8 7.8h-.5l-2.1-6.2-2.1 6.2h-.8l-2.8-7.8z"/>
			<path class="st2h" d="M16.3 25.8L13 21.1h1.1l2.6 3.9 2.6-3.9h1l-3.2 4.6v3.1h-.9v-3zm4.8-4.7h2.7c2.4 0 4.1 1.7 4.1 3.8 0 2.2-1.7 3.9-4.1 3.9h-2.7v-7.7zm.8.8V28h1.8c1.9 0 3.2-1.3 3.2-3s-1.2-3-3.2-3h-1.8zm9.5-.9h.8l3.5 7.8h-.9l-.9-2h-4.2l-.9 2h-.9l3.5-7.8zm2.1 5l-1.7-3.9L30 26h3.5zm3.1-4.9h3.3c.9 0 1.7.3 2.2.8.4.4.6.9.6 1.5 0 1.3-.9 2-2.1 2.2l2.4 3.1h-1.1l-2.2-3h-2.2v3h-.9v-7.6zm3.2 3.9c1.2 0 2-.6 2-1.6 0-.9-.7-1.5-2-1.5h-2.4V25h2.4zm3.7 3.2l5-6.3h-4.8v-.8h6v.6l-5 6.3h5v.8h-6.2v-.6zm7.3-7.1h5.6v.8h-4.7v2.6h4.2v.8h-4.2V28h4.8v.8h-5.6v-7.7zm6.8 0h.8l4.9 6.2v-6.2h.8v7.7h-.7l-5-6.3v6.3h-.8v-7.7zm8.1 0h.9v7.7h-.9v-7.7zM71 21h.8l3.5 7.8h-.9l-.9-2h-4.2l-.9 2h-.9L71 21zm2.1 5l-1.7-3.9-1.8 3.9h3.5zM19 15.8V7.9c-.1-1.2-1.1-2-2.3-1.9-.1 0-.3 0-.4.1-.6.1-1.4.5-1.5 1.1v8.7h-3.5V4.7c1.4-1.2 3.2-1.9 5-2.1 3-.1 6.3 1.3 6.3 5v8.1l-3.6.1zM23.7 0v13.9c1.6 1.5 3.7 2.2 5.9 2v-3.3c-.9 0-1.7-.3-2.4-.9V6.4h2.4V2.8h-2.4V0h-3.5zm19.2 10.6h-9.5c.5 1.2 1.7 2 3 2 .9 0 1.8-.4 2.4-1h3.8l-.1.1c-1.3 3.4-5.2 5.1-8.6 3.7-3.4-1.3-5.1-5.2-3.7-8.6 1.3-3.4 5.2-5.1 8.6-3.7 2.5 1 4.2 3.4 4.2 6.2 0 .4-.1.8-.1 1.3zm-3.6-2.7c-.8-1.7-2.8-2.3-4.4-1.5-.7.3-1.2.9-1.5 1.5h5.9zm15.3-5c-1.3.3-2.5 1-3.5 1.8v11.1h3.5V2.9zM49.9 6V2.7H49c-1.9.1-3.6.8-5 2.1v11.1h3.5v-9c.7-.6 1.5-.9 2.4-.9m12.3-3.4c3.4 0 6.3 2.6 6.6 6l1.9 7.2h-3.4l-.4-1.8c-2.6 2.6-6.8 2.5-9.4-.1-2.6-2.6-2.5-6.8.1-9.4 1.2-1.2 2.9-1.9 4.6-1.9m0 9.9c1.8 0 3.2-1.4 3.2-3.2S64 6.1 62.2 6.1c-1.7 0-3.2 1.4-3.2 3.2 0 1.8 1.5 3.2 3.2 3.2M6.4 2.9v12.9H10V4.7c-1-.9-2.2-1.5-3.6-1.8"/>
		</g>
	</g>
</svg>
