<svg version="1.1" id="_2" xmlns="http://www.w3.org/2000/svg" xmlns:xlink="http://www.w3.org/1999/xlink" x="0px" y="0px"
	 viewBox="0 0 64.3 34" style="enable-background:new 0 0 64.3 34;" xml:space="preserve">
	<defs>
		<path id="SVGID_1_" d="M0 0h64.3v34H0z"/>
	</defs>
	<clipPath id="SVGID_2_">
		<use xlink:href="#SVGID_1_" overflow="visible"/>
	</clipPath>
	<g clip-path="url(#SVGID_2_)">
		<g>
			<defs>
				<path id="SVGID_3_" d="M-.3 0H64v34H-.3z"/>
			</defs>
			<clipPath id="SVGID_4_">
				<use xlink:href="#SVGID_3_" overflow="visible"/>
			</clipPath>
			<g clip-path="url(#SVGID_4_)">
				<path fill="#00BA51" d="M11.3 28.3l4.5-5.8h-4.4v-.7h5.5v.5l-4.5 5.8h4.5v.7h-5.6v-.5zM18.1 21.8h.8v7h-.8v-7zM20.3 21.8h5.1v.7h-4.3v2.4h3.8v.7h-3.8V28h4.3v.7h-5.1v-6.9zM26.4 21.8h.8v6.3h3.9v.7h-4.7v-7zM31.3 25.3c0-1.9 1.4-3.6 3.6-3.6s3.6 1.7 3.6 3.6c0 1.9-1.4 3.6-3.6 3.6s-3.6-1.6-3.6-3.6zm6.3 0c0-1.6-1.2-2.9-2.8-2.9-1.6 0-2.7 1.3-2.7 2.9 0 1.6 1.2 2.9 2.8 2.9 1.6 0 2.7-1.3 2.7-2.9zM39.5 21.8h.7l4.4 5.6v-5.6h.8v7h-.6l-4.5-5.7v5.7h-.8v-7zM49.4 21.8h.7l3.2 7h-.8l-.8-1.8h-3.8l-.9 1.8h-.8l3.2-7zm2 4.4l-1.6-3.6-1.6 3.6h3.2zM12.2 15.8V7.9c-.1-1.2-1.1-2-2.3-1.9-.1-.1-.3 0-.4 0-.6.1-1.4.5-1.6 1.1v8.7H4.4V4.7c1.4-1.2 3.2-1.9 5-2.1 3-.1 6.3 1.3 6.3 5v8.1l-3.5.1zM16.9 0v13.9c1.6 1.5 3.7 2.2 5.9 2v-3.3c-.9 0-1.7-.3-2.4-.9V6.4h2.4V2.8h-2.4V0h-3.5zm19.2 10.6h-9.5c.5 1.2 1.7 2 3 2 .9 0 1.8-.4 2.4-1h3.8l-.1.1c-1.3 3.4-5.2 5.1-8.6 3.7-3.4-1.3-5.1-5.2-3.7-8.6 1.3-3.4 5.2-5.1 8.6-3.7 2.5 1 4.2 3.4 4.2 6.2 0 .4 0 .8-.1 1.3zm-3.5-2.7c-.8-1.7-2.8-2.3-4.4-1.5-.7.3-1.2.9-1.5 1.5h5.9zm15.2-5c-1.3.3-2.5 1-3.5 1.8v11.1h3.5V2.9zM43.1 6V2.7h-.9c-1.9.1-3.6.8-5 2.1v11.1h3.5v-9c.7-.6 1.5-.9 2.4-.9m12.3-3.4c3.4 0 6.3 2.6 6.6 6l1.9 7.2h-3.4l-.4-1.8c-2.6 2.6-6.8 2.5-9.4-.1s-2.5-6.8.1-9.4c1.2-1.2 2.9-1.9 4.6-1.9m0 9.9c1.8 0 3.2-1.4 3.2-3.2 0-1.8-1.4-3.2-3.2-3.2-1.7 0-3.2 1.4-3.2 3.2.1 1.7 1.5 3.2 3.2 3.2M-.3 2.9v12.9h3.5V4.7C2.2 3.8 1 3.2-.3 2.9"/>
			</g>
		</g>
	</g>
</svg>
