<svg version="1.1" xmlns="http://www.w3.org/2000/svg" x="0" y="0" viewBox="0 0 65.1 34" xml:space="preserve">
	<path fill="#228600" d="M14.6 27.7l.5-.6c.8.7 1.6 1.1 2.6 1.1s1.7-.5 1.7-1.3c0-.7-.4-1.1-2-1.5-1.8-.4-2.6-1-2.6-2.2 0-1.2 1.1-2.1 2.5-2.1 1.1 0 1.9.3 2.7.9l-.5.7c-.7-.6-1.4-.8-2.2-.8-1 0-1.6.6-1.6 1.2 0 .7.4 1.1 2.1 1.5 1.7.4 2.5 1 2.5 2.2 0 1.3-1.1 2.2-2.6 2.2-1.1-.1-2.1-.5-3.1-1.3zM21.5 21.1h2.9c1.7 0 2.9.9 2.9 2.4 0 1.7-1.4 2.5-3 2.5h-1.9v2.7h-.9v-7.6zm2.8 4.2c1.3 0 2.1-.7 2.1-1.7 0-1.1-.8-1.7-2.1-1.7h-1.9v3.4h1.9zM27.9 25c0-2.1 1.6-4 3.9-4s3.9 1.8 3.9 4c0 2.1-1.6 4-3.9 4-2.3-.1-3.9-1.9-3.9-4zm6.9 0c0-1.8-1.3-3.2-3-3.2-1.8 0-3 1.4-3 3.2 0 1.7 1.3 3.2 3 3.2 1.8-.1 3-1.5 3-3.2zM36.9 21.1h3.3c.9 0 1.7.3 2.2.8.4.4.6.9.6 1.5 0 1.3-.9 2-2.1 2.2l2.4 3.1h-1.1l-2.2-3h-2.2v3h-.9v-7.6zm3.3 3.9c1.2 0 2-.6 2-1.6 0-.9-.7-1.5-2-1.5h-2.4V25h2.4zM46.2 21.9h-2.6v-.8h6.1v.8h-2.6v6.9h-.9v-6.9zM12.6 15.8V7.9c-.1-1.2-1.1-2-2.3-1.9-.2-.1-.3 0-.5 0-.6.1-1.4.5-1.5 1.1v8.7H4.8V4.7c1.4-1.2 3.2-1.9 5-2.1 3-.1 6.3 1.3 6.3 5v8.1h-3.5zM17.3 0v13.9c1.6 1.5 3.7 2.2 5.9 2v-3.3c-.9 0-1.7-.3-2.4-.9V6.4h2.4V2.8h-2.4V0h-3.5zm19.2 10.6H27c.5 1.2 1.7 2 3 2 .9 0 1.8-.4 2.4-1h3.8l-.1.1c-1.3 3.4-5.2 5.1-8.6 3.7-3.4-1.3-5.1-5.2-3.7-8.6 1.3-3.4 5.2-5.1 8.6-3.7 3 1.2 4.7 4.3 4.1 7.5zm-3.6-2.7c-.8-1.7-2.8-2.3-4.4-1.5-.7.3-1.2.9-1.5 1.5h5.9zm15.3-5c-1.3.3-2.5 1-3.5 1.8v11.1h3.5V2.9zM43.5 6V2.7h-.9c-1.9.1-3.6.8-5 2.1v11.1h3.5v-9c.7-.6 1.5-.9 2.4-.9m12.3-3.4c3.4 0 6.3 2.6 6.6 6l1.9 7.2h-3.4l-.4-1.8c-2.6 2.6-6.8 2.5-9.4-.1s-2.5-6.8.1-9.4c1.2-1.2 2.9-1.9 4.6-1.9m0 9.9c1.8 0 3.2-1.4 3.2-3.2 0-1.8-1.4-3.2-3.2-3.2-1.8 0-3.2 1.4-3.2 3.2.1 1.8 1.5 3.2 3.2 3.2M0 2.9v12.9h3.5V4.7C2.6 3.8 1.4 3.2 0 2.9" transform="translate(.378 -.001)"/>
</svg>
