<svg xmlns="http://www.w3.org/2000/svg" width="34" height="34" viewBox="0 0 34 34">
  <g id="kosomos" transform="translate(2.513 37.061)">
    <rect id="Rectangle_420-9" data-name="Rectangle 420-9" width="34" height="34" transform="translate(-2.513 -37.061)" fill="rgba(197,5,60,0)"/>
    <g id="Group_5871" data-name="Group 5871" transform="translate(1.4 -34.06)">
      <path id="Path_18373" data-name="Path 18373" d="M2.542,7.5A2.542,2.542,0,1,0,0,4.959,2.543,2.543,0,0,0,2.542,7.5m0-4.083A1.542,1.542,0,1,1,1,4.959,1.544,1.544,0,0,1,2.542,3.417" fill="#4da3dc" stroke="rgba(0,0,0,0)" stroke-width="1"/>
      <rect id="Rectangle_4645" data-name="Rectangle 4645" width="1" height="1.167" transform="translate(9.917)" fill="#4da3dc" stroke="rgba(0,0,0,0)" stroke-width="1"/>
      <rect id="Rectangle_4646" data-name="Rectangle 4646" width="1.167" height="1" transform="translate(11 1.25)" fill="#4da3dc" stroke="rgba(0,0,0,0)" stroke-width="1"/>
      <rect id="Rectangle_4647" data-name="Rectangle 4647" width="1" height="1.167" transform="translate(9.917 2.333)" fill="#4da3dc" stroke="rgba(0,0,0,0)" stroke-width="1"/>
      <rect id="Rectangle_4648" data-name="Rectangle 4648" width="1.167" height="1" transform="translate(8.666 1.25)" fill="#4da3dc" stroke="rgba(0,0,0,0)" stroke-width="1"/>
      <rect id="Rectangle_4649" data-name="Rectangle 4649" width="1" height="1.167" transform="translate(20.417 24.5)" fill="#4da3dc" stroke="rgba(0,0,0,0)" stroke-width="1"/>
      <rect id="Rectangle_4650" data-name="Rectangle 4650" width="1.167" height="1" transform="translate(21.5 25.75)" fill="#4da3dc" stroke="rgba(0,0,0,0)" stroke-width="1"/>
      <rect id="Rectangle_4651" data-name="Rectangle 4651" width="1" height="1.167" transform="translate(20.417 26.833)" fill="#4da3dc" stroke="rgba(0,0,0,0)" stroke-width="1"/>
      <rect id="Rectangle_4652" data-name="Rectangle 4652" width="1.167" height="1" transform="translate(19.167 25.75)" fill="#4da3dc" stroke="rgba(0,0,0,0)" stroke-width="1"/>
      <rect id="Rectangle_4653" data-name="Rectangle 4653" width="1" height="1.167" transform="translate(25.667 15.75)" fill="#4da3dc" stroke="rgba(0,0,0,0)" stroke-width="1"/>
      <rect id="Rectangle_4654" data-name="Rectangle 4654" width="1.167" height="1" transform="translate(26.75 17)" fill="#4da3dc" stroke="rgba(0,0,0,0)" stroke-width="1"/>
      <rect id="Rectangle_4655" data-name="Rectangle 4655" width="1" height="1.167" transform="translate(25.667 18.083)" fill="#4da3dc" stroke="rgba(0,0,0,0)" stroke-width="1"/>
      <rect id="Rectangle_4656" data-name="Rectangle 4656" width="1.167" height="1" transform="translate(24.417 17)" fill="#4da3dc" stroke="rgba(0,0,0,0)" stroke-width="1"/>
      <path id="Path_18374" data-name="Path 18374" d="M22.583,8.167A2.833,2.833,0,1,0,19.749,11a2.836,2.836,0,0,0,2.834-2.833m-4.666,0A1.833,1.833,0,1,1,19.749,10a1.834,1.834,0,0,1-1.832-1.833" fill="#4da3dc" stroke="rgba(0,0,0,0)" stroke-width="1"/>
      <path id="Path_18375" data-name="Path 18375" d="M2.4,25.887l-.542.17q.087-.271.169-.538c.916-2.932,1.64-5.248,4.491-6.388L6.148,18.2C2.856,19.519,2.03,22.161,1.073,25.22c-.147.472-.3.958-.464,1.455l-.316.949.948-.317c.5-.166.986-.317,1.458-.465,3.057-.956,5.7-1.781,7.015-5.073L8.785,21.4c-1.14,2.85-3.454,3.573-6.384,4.489" fill="#4da3dc" stroke="rgba(0,0,0,0)" stroke-width="1"/>
      <path id="Path_18376" data-name="Path 18376" d="M16.352,21.329,11.3,25.373l-.325-1.3,2.863-2.863V18.9c9.284-5.149,14-10.811,14-16.857A1.96,1.96,0,0,0,25.875.084c-6.047,0-11.708,4.716-16.857,14H6.71L3.847,16.947l-1.3-.326,4.045-5.055,2.927-.223-.076-1L6.079,10.6.789,17.213l3.365.841,2.97-2.97H8.473c-.28.526-.56,1.056-.836,1.609l.894.448c3.962-7.925,8.2-12.938,12.663-14.99L22.483,3.44l.707-.707L22.2,1.744a10.853,10.853,0,0,1,3.674-.66.96.96,0,0,1,.959.958,10.85,10.85,0,0,1-.661,3.674L24.018,3.561l-.707.707,2.455,2.455c-2.052,4.458-7.065,8.7-14.989,12.664l.447.894c.554-.277,1.084-.556,1.61-.836v1.348L9.863,23.764l.842,3.363,6.611-5.288.255-3.356-1-.076Z" fill="#4da3dc" stroke="rgba(0,0,0,0)" stroke-width="1"/>
      <rect id="Rectangle_4657" data-name="Rectangle 4657" width="13.199" height="1" transform="translate(4.813 22.396) rotate(-45)" fill="#4da3dc" stroke="rgba(0,0,0,0)" stroke-width="1"/>
    </g>
  </g>
</svg>
