<svg xmlns="http://www.w3.org/2000/svg" width="34" height="34" viewBox="0 0 34 34"><defs><style>.a{fill:#747474;opacity:0;}.b{fill:#dc003f;}</style></defs><rect class="a" width="34" height="34"/><path class="b" d="M25.018,12.12a4.964,4.964,0,0,0-3.985,2.022V9.258a4.758,4.758,0,0,0-9.016-2.122A4.758,4.758,0,0,0,3,9.258a.5.5,0,0,0,1,0,3.759,3.759,0,0,1,7.517,0V18a.5.5,0,0,0,1,0V9.258a3.758,3.758,0,1,1,7.516,0v7.867c.018.394.309,9.647-10.277,10.685a.5.5,0,0,0,.048,1l.049,0c7.914-.777,10.233-5.948,10.907-9.152a4.974,4.974,0,1,0,4.257-7.534Zm0,8.965A3.982,3.982,0,1,1,29,17.1,3.987,3.987,0,0,1,25.018,21.085Z" transform="translate(1 2)"/></svg>