<svg xmlns="http://www.w3.org/2000/svg" width="34" height="34" viewBox="0 0 34 34"><defs><style>.a{fill:#747474;opacity:0;}.b{fill:#dc003f;}</style></defs><rect class="a" width="34" height="34"/><path class="b" d="M27.43,26.1a.5.5,0,0,0-.492.507,3.338,3.338,0,1,1-6.676.1V26.6c0-1.962.749-4.128,4.479-8.858,3.214-4.081,3.2-6,3.2-7.54V10a7,7,0,1,0-14.005.034,8.555,8.555,0,0,0,.84,3.136,6.093,6.093,0,1,0,2.2,1.476c-.009-.011-.012-.024-.021-.034A7.564,7.564,0,0,1,14.932,10a6,6,0,1,1,12.006,0v.2c.007,1.386.015,3.111-2.982,6.917-3.422,4.339-4.694,6.907-4.694,9.465v.139A4.343,4.343,0,0,0,23.6,31h.067a4.344,4.344,0,0,0,4.271-4.406A.5.5,0,0,0,27.43,26.1ZM12.573,23.9a5.074,5.074,0,1,1,5.073-5.074A5.08,5.08,0,0,1,12.573,23.9Z" transform="translate(-0.499)"/></svg>