<svg xmlns="http://www.w3.org/2000/svg" width="34" height="34" viewBox="0 0 34 34">
  <g id="medycyna" transform="translate(-393 -7830)">
    <rect id="Rectangle_420-9" data-name="Rectangle 420-9" width="34" height="34" transform="translate(393 7830)" fill="rgba(197,5,60,0)"/>
    <g id="Group_5865" data-name="Group 5865" transform="translate(398.202 7831.001)">
      <path id="Path_18406" data-name="Path 18406" d="M21.232,27.469h-5.64a4.125,4.125,0,0,0-.7-1.578,9.8,9.8,0,0,0,6.29-9.166,9.647,9.647,0,0,0-1.413-5.015,4.14,4.14,0,0,0-2.549-4.1l2.026-3.148-.867-.558L19.468,2.22,16.019,0,14.933,1.687,14.2,1.216,5.307,15.029l.8.515L4.989,17.279l3.45,2.22,1.116-1.735.8.515,2.468-3.832A4.094,4.094,0,0,0,15.665,15.6c.066,0,.133,0,.2-.005a4.08,4.08,0,0,0,2.2-.768,4.127,4.127,0,0,0,1.356-1.674,8.665,8.665,0,0,1,.768,3.57,8.783,8.783,0,0,1-6.051,8.367,4.078,4.078,0,0,0-5.251,0A8.4,8.4,0,0,1,4.468,21.58H7.375a6.015,6.015,0,0,0,4.132,1.765,6.578,6.578,0,0,0,6.52-6.62,6.308,6.308,0,0,0-.036-.676L17,16.155a5.384,5.384,0,0,1,.03.57,5.577,5.577,0,0,1-5.52,5.62,5.031,5.031,0,0,1-2.543-.765h2.615v-1H1.045v1H3.311a9.6,9.6,0,0,0,4.815,4.3,4.125,4.125,0,0,0-.7,1.587H1.782A1.784,1.784,0,0,0,0,29.252v1.939H21.2v-1H1v-.939a.783.783,0,0,1,.782-.783h19.45a.783.783,0,0,1,.782.783v1.939h1V29.252a1.784,1.784,0,0,0-1.782-1.783M16.319,1.382,18.087,2.52l-.545.846L15.774,2.228ZM8.139,18.117,6.371,16.979l.576-.894,1.768,1.138Zm1.917-1.22L6.69,14.73,14.47,2.646,17.81,4.8l.031-.048.026.017-1.66,2.578a4.3,4.3,0,0,0-.746-.041,4.077,4.077,0,0,0-2.852,1.357,4.145,4.145,0,0,0-.444,4.963Zm7.42-2.879a3.1,3.1,0,0,1-4.317-.689,3.179,3.179,0,0,1,.193-4A3.084,3.084,0,0,1,15.509,8.3c.052,0,.1,0,.153,0a3.039,3.039,0,0,1,.681.077A3.136,3.136,0,0,1,18.714,10.8v0a3.063,3.063,0,0,1,.065.5,3.151,3.151,0,0,1-1.3,2.719M11.507,25.133a3.165,3.165,0,0,1,3.044,2.336H8.463a3.165,3.165,0,0,1,3.044-2.336" fill="#4da3dc" stroke="rgba(0,0,0,0)" stroke-width="1"/>
      <path id="Path_18407" data-name="Path 18407" d="M15.576,9.668a1.772,1.772,0,0,0-1.233.582,1.753,1.753,0,0,0-.226.349l-.068.069-.031.091-.005.019v0a1.78,1.78,0,0,0,1.65,2.452l.087,0a1.783,1.783,0,1,0-.173-3.562m.125,2.563a.784.784,0,0,1-.758-1.091l-.008,0,0,0,.008,0a.777.777,0,0,1,.138-.214l-.37-.337.37.336a.784.784,0,1,1,.618,1.309" fill="#4da3dc" stroke="rgba(0,0,0,0)" stroke-width="1"/>
    </g>
  </g>
</svg>
