<svg xmlns="http://www.w3.org/2000/svg" width="34" height="34" viewBox="0 0 34 34">
  <g id="nauka" transform="translate(-365.569 -360.423)">
    <rect id="Rectangle_420-9" data-name="Rectangle 420-9" width="34" height="34" transform="translate(365.569 360.423)" fill="rgba(197,5,60,0)"/>
    <g id="Group_5858" data-name="Group 5858" transform="translate(369.797 362.92)">
      <path id="Path_18387" data-name="Path 18387" d="M23.282,14.3l.084-.186-.353-.16c-.5-.608-1.019-1.183-1.523-1.739-1.707-1.883-3.319-3.662-3.319-5.912V2.522A1.306,1.306,0,0,0,17.692,0H13.017a1.311,1.311,0,0,0-1.31,1.309,1.3,1.3,0,0,0,.922,1.231V6.3c0,2.052-1.3,3.661-2.86,5.4l-.334.372.744.668.334-.372c1.642-1.829,3.116-3.669,3.116-6.072V1.619h-.612a.31.31,0,1,1,0-.619h4.675a.31.31,0,1,1,0,.619h-1.85v1h1.329V6.3c0,2.637,1.738,4.554,3.578,6.583.241.266.483.534.723.8a2.863,2.863,0,0,0-1,.305,4.968,4.968,0,0,0-.985.729,1.715,1.715,0,0,1-1.53.643,2.3,2.3,0,0,1-1.172-.658,3.576,3.576,0,0,0-1.406-.836,2.473,2.473,0,0,0-2.4.629,4.2,4.2,0,0,1-.74.49,1.76,1.76,0,0,1-1.864-.126l-.442-.234-.467.884.442.234a2.745,2.745,0,0,0,2.767.142,5.247,5.247,0,0,0,.913-.6,1.515,1.515,0,0,1,1.542-.456,2.688,2.688,0,0,1,1.016.634,3.2,3.2,0,0,0,1.688.886,3.074,3.074,0,0,0,.372.024,2.785,2.785,0,0,0,1.949-.911,4.054,4.054,0,0,1,.789-.593,1.642,1.642,0,0,1,1.451-.095,9.587,9.587,0,0,1,2.48,6.18,6.187,6.187,0,0,1-3.1,5.368,13.234,13.234,0,0,1-11.819.511l-.45-.215-.432.9.451.216A13.744,13.744,0,0,0,15.4,29.007a13.152,13.152,0,0,0,6.909-1.827,7.105,7.105,0,0,0,3.568-6.214A10.481,10.481,0,0,0,23.282,14.3" fill="#4da3dc" stroke="rgba(0,0,0,0)" stroke-width="1"/>
      <path id="Path_18388" data-name="Path 18388" d="M9.818,8.9A1.417,1.417,0,0,0,8.4,7.487H1.415A1.417,1.417,0,0,0,0,8.9,1.459,1.459,0,0,0,1.042,10.23V25.017a3.936,3.936,0,0,0,3.611,3.974c.087.006.174.009.26.009a3.83,3.83,0,0,0,2.64-1.046,3.879,3.879,0,0,0,1.224-2.822V10.266A1.418,1.418,0,0,0,9.818,8.9M6.869,27.225a2.822,2.822,0,0,1-2.152.768,2.933,2.933,0,0,1-2.675-2.976v-.906H4.448v-1H2.042V21.462H4.448v-1H2.042V18.813H4.448v-1H2.042V16.131H7.777v9a2.843,2.843,0,0,1-.908,2.093M8.4,9.316H6.215v1H7.777v4.815H2.042V9.816a.5.5,0,0,0-.5-.5C1.283,9.316,1,9.1,1,8.9a.415.415,0,0,1,.415-.414H8.4a.415.415,0,1,1,0,.829" fill="#4da3dc" stroke="rgba(0,0,0,0)" stroke-width="1"/>
      <rect id="Rectangle_4662" data-name="Rectangle 4662" width="1" height="1.532" transform="translate(3.253 2.773)" fill="#4da3dc" stroke="rgba(0,0,0,0)" stroke-width="1"/>
      <rect id="Rectangle_4663" data-name="Rectangle 4663" width="1" height="1.531" transform="translate(3.253 5.304)" fill="#4da3dc" stroke="rgba(0,0,0,0)" stroke-width="1"/>
      <path id="Path_18389" data-name="Path 18389" d="M21.3,21.808a1.743,1.743,0,1,0-1.743,1.743A1.745,1.745,0,0,0,21.3,21.808m-2.486,0a.743.743,0,1,1,.743.743.743.743,0,0,1-.743-.743" fill="#4da3dc" stroke="rgba(0,0,0,0)" stroke-width="1"/>
      <path id="Path_18390" data-name="Path 18390" d="M15.184,20.254a1.4,1.4,0,1,0-1.4-1.4,1.4,1.4,0,0,0,1.4,1.4m0-1.8a.4.4,0,1,1-.4.4.4.4,0,0,1,.4-.4" fill="#4da3dc" stroke="rgba(0,0,0,0)" stroke-width="1"/>
      <path id="Path_18391" data-name="Path 18391" d="M10.749,23.324a1.844,1.844,0,1,0,1.844-1.843,1.845,1.845,0,0,0-1.844,1.843m2.687,0a.844.844,0,1,1-.843-.843.844.844,0,0,1,.843.843" fill="#4da3dc" stroke="rgba(0,0,0,0)" stroke-width="1"/>
      <rect id="Rectangle_4664" data-name="Rectangle 4664" width="1" height="1.531" transform="translate(5.354 2.855)" fill="#4da3dc" stroke="rgba(0,0,0,0)" stroke-width="1"/>
      <rect id="Rectangle_4665" data-name="Rectangle 4665" width="1" height="1.532" transform="translate(5.354 0.323)" fill="#4da3dc" stroke="rgba(0,0,0,0)" stroke-width="1"/>
      <rect id="Rectangle_4666" data-name="Rectangle 4666" width="1" height="1.532" transform="translate(5.354 5.386)" fill="#4da3dc" stroke="rgba(0,0,0,0)" stroke-width="1"/>
    </g>
  </g>
</svg>
