<svg xmlns="http://www.w3.org/2000/svg" viewBox="0 0 34 34"><path d="m28.559 21.853-.038-.144-3.323 1.414 3.084 1.747a4.48 4.48 0 0 0 .277-3.022Zm-8.205 3.504c.56.906 1.4 1.558 2.372 1.89l.86-3.43-3.31 1.412.078.127Zm6.208 1.47c.54-.334.978-.77 1.323-1.266l-3.431-1.944-.958 3.822c.23.036.463.06.701.06.834 0 1.652-.233 2.365-.673Z" fill="none"/><path d="M5.887 11.454c.364 1.474 1.805 7.234 2.209 8.51l.025.08-.014.008a4.563 4.563 0 0 1 1.897 2.3l.076.048a4.79 4.79 0 0 0 2.508.708h.043a4.86 4.86 0 0 0 2.585-.74l.08-.05.573.814-.087.056c-.94.609-2.028.93-3.146.93h-.016a5.77 5.77 0 0 1-2.344-.497c.007.105.032.206.032.313-.002 1.455-.7 2.739-1.767 3.575h12.52a5.485 5.485 0 0 1-1.917-2.333l-.198-.46 10.125-4.322.196.459a5.47 5.47 0 0 1 .026 4.215 5.464 5.464 0 0 1-1.96 2.44h2.114l.06-.046a6.032 6.032 0 0 0 2.283-4.05 6.035 6.035 0 0 0-1.25-4.476 6.037 6.037 0 0 0-4.78-2.327c-1.924 0-3.016-1.328-4.172-2.735-1.6-1.945-3.412-4.147-8.024-4.148a9.555 9.555 0 0 0-3.096.716l4.98 2.776a5.808 5.808 0 0 1 2.953 5.726l-.012.103-.982-.145.01-.095a4.821 4.821 0 0 0-2.452-4.72l-6.96-3.88a1.125 1.125 0 0 1-.399-.378L5.967 7.24a1.375 1.375 0 0 0-1.905-.43 1.376 1.376 0 0 0-.61.862A1.37 1.37 0 0 0 3.774 8.9l1.864 2.085c.12.134.205.296.25.468Zm10.722 9.56c.092-.137.172-.268.243-.398l.045-.084.894.437-.045.091c-.096.18-.208.363-.332.544l-.06.086-.791-.597.052-.078Z" fill="none"/><path d="M5.74 19.37c.42 0 .82.076 1.208.183a202.284 202.284 0 0 1-1.299-4.956 8.787 8.787 0 0 0-.98 4.02c0 .294.03.584.06.874a4.536 4.536 0 0 1 1.007-.12Zm18.454 9.127H.917l.001 1.51 32.171-.001v-1.51l-8.892.001h-.003zm-18.457-.994a3.575 3.575 0 0 0 3.571-3.57 3.58 3.58 0 0 0-3.57-3.57c-1.969 0-3.57 1.601-3.57 3.57s1.601 3.57 3.57 3.57Zm-1.063-3.754.013.085a1.379 1.379 0 0 0 1.15 1.15l.084.014v.995l-.105-.011a2.384 2.384 0 0 1-2.12-2.123l-.012-.11h.995Z" fill="none"/><path d="m24.378 3.025.285-.46.674.417-.284.46zm.54 7.385.493.165a1.158 1.158 0 0 1 .453 1.917l-.416.418.702.7.417-.416a2.16 2.16 0 0 0 .52-.842c.182-.544.14-1.127-.116-1.641s-.7-.897-1.244-1.08l-.493-.163a2.611 2.611 0 0 1-1.72-1.882 2.598 2.598 0 0 1 .321-1.975l.171-.278-.845-.524-.173.278a3.618 3.618 0 0 0 1.93 5.324Zm3.887.3h.793v.793h-.793zm-.1-1.847V9.1h.992v-.237A2.6 2.6 0 0 0 28.926 7a1.616 1.616 0 0 1-.48-1.158c-.001-.5.2-.99.556-1.342l.83-.83-.703-.703-.83.83a2.888 2.888 0 0 0-.851 2.046 2.6 2.6 0 0 0 .77 1.862c.308.304.484.726.48 1.158ZM5.81 25.98l.11.013v-.995l-.084-.014a1.378 1.378 0 0 1-1.15-1.15l-.013-.085H3.68l.01.11a2.384 2.384 0 0 0 2.121 2.122Zm11.598-4.377c.124-.18.236-.363.333-.543l.049-.09-.893-.438-.046.084c-.071.13-.15.26-.243.398l-.052.08.793.596.06-.087Z" fill="#4fd675"/><path d="M32.955 27.509h-2.05a7.068 7.068 0 0 0 1.202-1.72c.47-.962.72-2.036.72-3.106a7.074 7.074 0 0 0-7.066-7.066c-1.457 0-2.317-1.046-3.407-2.371-1.651-2.011-3.706-4.514-8.794-4.514h-.005a10.378 10.378 0 0 0-4.173 1.105l-.92-.512-1.656-2.619a2.379 2.379 0 0 0-3.59-.497 2.38 2.38 0 0 0-.184 3.349l1.885 2.099.008.033c.128.52.252 1.015.372 1.497l-.002.003a9.803 9.803 0 0 0-1.617 5.42c0 .407.033.818.083 1.225-1.524.739-2.586 2.288-2.586 4.092 0 1.456.697 2.74 1.762 3.576H1.045C.43 27.51.002 28.013 0 28.628v1.252c.002.616.43 1.118 1.046 1.12h31.909c.616-.002 1.044-.505 1.045-1.12v-1.25c-.002-.616-.43-1.118-1.046-1.12ZM3.775 8.901a1.372 1.372 0 0 1-.32-1.228 1.37 1.37 0 0 1 .607-.863 1.375 1.375 0 0 1 1.905.43l1.638 2.59c.1.156.237.287.4.38l6.959 3.876a4.82 4.82 0 0 1 2.452 4.72l-.01.095.982.145.012-.103a5.808 5.808 0 0 0-2.953-5.727l-4.98-2.775a9.55 9.55 0 0 1 3.096-.712c4.612 0 6.424 2.203 8.024 4.148 1.156 1.406 2.248 2.735 4.172 2.735 1.88 0 3.622.848 4.78 2.326a6.035 6.035 0 0 1 1.25 4.478 6.033 6.033 0 0 1-2.283 4.05l-.06.046h-2.114a5.464 5.464 0 0 0 1.96-2.442 5.471 5.471 0 0 0-.026-4.214l-.196-.46-10.125 4.324.198.458a5.484 5.484 0 0 0 1.918 2.334H8.536c1.065-.836 1.765-2.12 1.767-3.575 0-.107-.025-.208-.032-.313a5.782 5.782 0 0 0 2.344.497h.016a5.778 5.778 0 0 0 3.146-.93l.087-.057-.572-.812-.08.05a4.868 4.868 0 0 1-2.58.74h-.044a4.79 4.79 0 0 1-2.508-.708l-.076-.047a4.564 4.564 0 0 0-1.897-2.301l.014-.008-.02-.08c-.404-1.276-1.845-7.037-2.21-8.51a1.14 1.14 0 0 0-.25-.468L3.776 8.9Zm20.68 14.716 3.43 1.944a4.508 4.508 0 0 1-1.323 1.265 4.502 4.502 0 0 1-2.365.673 4.819 4.819 0 0 1-.702-.064l.96-3.822Zm-1.729 3.63a4.48 4.48 0 0 1-2.372-1.89l-.078-.128 3.31-1.413-.86 3.43Zm2.472-4.12 3.322-1.418.039.144c.27 1.042.15 2.1-.277 3.022l-3.084-1.747ZM5.65 14.598a201.352 201.352 0 0 0 1.298 4.956 4.5 4.5 0 0 0-1.21-.183 4.54 4.54 0 0 0-1.01.121c-.027-.29-.058-.58-.058-.874a8.788 8.788 0 0 1 .978-4.02Zm-3.483 9.336a3.574 3.574 0 0 1 3.57-3.57 3.58 3.58 0 0 1 3.57 3.57c0 1.969-1.602 3.57-3.57 3.57s-3.57-1.602-3.57-3.57ZM33 30.006H1v-1.51h32v1.51Z" fill="#4fd675"/><path d="M0 0h34v34H0z" fill="none"/></svg>