<svg xmlns="http://www.w3.org/2000/svg" width="34" height="34" viewBox="0 0 34 34"><defs><style>.a{fill:#747474;opacity:0;}.b{fill:#dc003f;}</style></defs><rect class="a" width="34" height="34"/><path class="b" d="M33.695,23.109a.5.5,0,0,0-.5.5,3.876,3.876,0,0,1-6.749,2.617A19.494,19.494,0,0,0,29.8,23.881c2.734-2.37,4.367-5.03,4.367-7.116a4.858,4.858,0,0,0-8.749-2.926V11.9A4.4,4.4,0,0,0,17.11,9.866a4.4,4.4,0,0,0-7.805,0A4.4,4.4,0,0,0,1,11.9a.5.5,0,0,0,1,0,3.4,3.4,0,0,1,6.805,0V23.609a.5.5,0,0,0,1,0V11.9a3.4,3.4,0,0,1,6.805,0V23.609a.5.5,0,0,0,1,0V11.9a3.4,3.4,0,0,1,6.805,0V23.609a4.823,4.823,0,0,0,.565,2.233,7.289,7.289,0,0,1-3.787.813.5.5,0,0,0-.142.991,4.632,4.632,0,0,0,.667.044,9.374,9.374,0,0,0,3.822-1,4.868,4.868,0,0,0,8.655-3.082A.5.5,0,0,0,33.695,23.109Zm-8.28.5V16.765a3.875,3.875,0,1,1,7.749,0c0,1.773-1.541,4.21-4.021,6.36A18.456,18.456,0,0,1,25.872,25.4,3.843,3.843,0,0,1,25.415,23.609Z" transform="translate(-0.5 -1)"/></svg>