<svg xmlns="http://www.w3.org/2000/svg" viewBox="0 0 34 34"><path d="M10.539 13.838c2.6.42 5.003 1.716 6.762 3.72.233.238.557.375.89.376a1.32 1.32 0 0 0 1.286-1.337 1.55 1.55 0 0 0-.244-.782c-1.54-2.322-2.982-4.106-6.323-4.204-.036 0-.06-.013-.096-.014v.01l-.093.008c-1.153.085-1.935.895-2.183 2.223Zm-5.846 5.996c3.309.373 5.424 2.303 6.759 3.803.23.235.555.373.89.374a1.32 1.32 0 0 0 1.284-1.337 1.55 1.55 0 0 0-.244-.782c-1.876-2.828-4.132-4.204-6.896-4.204-.038-.001-.074-.011-.112-.015v.016l-.082.015c-.73.13-1.362.992-1.599 2.13Z" fill="rgba(197,5,60,0)"/><path d="M11.172 30.09h.075c1.588 0 3.149-.278 4.638-.827a22.92 22.92 0 0 0 10.142-7.503 24.678 24.678 0 0 0 4.377-9.556 7.065 7.065 0 0 0 .204-1.69c.064-3.68-2.877-6.734-6.555-6.81a7.865 7.865 0 0 0-4.669 1.545h-.004l-.285.185.332.04c3.19.384 6.111 2.04 7.623 4.323.254.395.393.85.404 1.317a2.276 2.276 0 0 1-2.226 2.312 2.187 2.187 0 0 1-1.574-.673c-1.86-2.087-5.16-4.19-8.35-4.19-1.895.022-3.073.535-3.073 1.34 0 .505.028.73.699.73 3.789.114 5.517 2.257 7.094 4.634.254.395.393.85.404 1.318a2.277 2.277 0 0 1-2.226 2.311 2.192 2.192 0 0 1-1.574-.674 10.51 10.51 0 0 0-7.797-3.582c-.71.011-3.03.132-3.041 1.341.01.185.089.357.22.487l.007.005a.706.706 0 0 0 .476.237c3.055 0 5.636 1.56 7.673 4.635.254.395.393.85.404 1.318a2.276 2.276 0 0 1-2.226 2.312 2.182 2.182 0 0 1-1.574-.674c-1.37-1.538-3.603-3.58-7.21-3.58-.867.001-1.87 1.547-1.87 2.555 0 3.95 5.663 6.81 9.482 6.81Z" fill="rgba(197,5,60,0)"/><path d="M5.923 9.87c.232-.218.354-.328.571-.513l.08-.068.588.758-.072.062c-.201.173-.321.283-.53.48l-.076.071-.63-.724.07-.066Zm10.291 20.303c-1.6.59-3.276.887-4.983.887h-.055C7.024 31.06.75 27.957.75 23.28c-.001-.688.314-1.556.822-2.266.58-.812 1.288-1.259 1.99-1.259.066 0 .123.012.188.013.217-1.21.783-2.172 1.54-2.67a1.697 1.697 0 0 1-.446-1.11c.005-.684.403-2.268 3.979-2.31.263.002.523.028.783.048.236-1.338.933-2.334 1.94-2.797a1.936 1.936 0 0 1-.261-1.019c0-1.437 1.45-2.28 3.979-2.31.144 0 .284.026.428.033a4.677 4.677 0 0 1 2.622-2.3 1.07 1.07 0 0 1 .474-.843 8.945 8.945 0 0 1 5.268-1.757 7.605 7.605 0 0 1 5.359 2.342 7.601 7.601 0 0 1 2.139 5.44 8.123 8.123 0 0 1-.229 1.925 25.601 25.601 0 0 1-4.554 9.926 23.872 23.872 0 0 1-10.555 7.807Zm14.377-8.086a9.94 9.94 0 0 1-.322.48l-.155.216-.768-.562.165-.24c.095-.137.178-.255.274-.408l.054-.086.8.516-.052.084Z" fill="rgba(197,5,60,0)"/><path d="M24.33 12.09c.233.238.55.372.89.373a1.32 1.32 0 0 0 1.284-1.337 1.535 1.535 0 0 0-.245-.78c-1.08-1.629-3.494-3.512-7.034-3.91a1.028 1.028 0 0 1-.51-.23 3.754 3.754 0 0 0-1.975 1.522c3.163.516 5.992 2.566 7.59 4.362Z" fill="rgba(197,5,60,0)"/><path d="M29.79 21.573c-.096.153-.179.271-.274.408l-.165.24.768.562.15-.217a9.94 9.94 0 0 0 .322-.48l.057-.082-.8-.517-.053.086ZM34 13.31l-.123-.032-.79-.21-.024.1a30.137 30.137 0 0 1-2.09 5.962l-.04.087.84.444.044-.09a31.227 31.227 0 0 0 2.06-5.782c.032-.127.07-.252.1-.38L34 13.31ZM.89 18.28c.275-.57.54-1.063.912-1.7a22.29 22.29 0 0 1 2.993-4.102l.065-.07-.673-.68-.07.076A23.185 23.185 0 0 0 .991 16.08a25.31 25.31 0 0 0-.86 1.59l-.09.18-.04.09.132.068.71.363.046-.092Zm5.67-7.69c.21-.197.33-.307.53-.48l.072-.062-.588-.758-.08.067a13.23 13.23 0 0 0-.57.513l-.07.066.63.724.075-.071Zm24.992-.074a7.602 7.602 0 0 0-2.14-5.44 7.605 7.605 0 0 0-5.357-2.342 8.945 8.945 0 0 0-5.268 1.757c-.287.19-.458.503-.475.843a4.677 4.677 0 0 0-2.622 2.3c-.144-.007-.284-.033-.428-.033-2.53.03-3.98.873-3.98 2.31 0 .43.105.751.263 1.019-1.008.463-1.705 1.459-1.94 2.797-.261-.02-.521-.046-.784-.048-3.576.042-3.974 1.626-3.98 2.308.01.417.175.807.45 1.11-.755.5-1.321 1.462-1.54 2.672-.063-.005-.12-.017-.186-.017-.702 0-1.41.447-1.99 1.258-.507.71-.823 1.58-.823 2.267-.001 4.677 6.274 7.78 10.424 7.78h.059a14.38 14.38 0 0 0 4.983-.887 23.872 23.872 0 0 0 10.555-7.807 25.603 25.603 0 0 0 4.554-9.927c.153-.63.23-1.278.23-1.924ZM3.56 20.727c3.607 0 5.84 2.042 7.21 3.58.408.428.981.673 1.574.673a2.276 2.276 0 0 0 2.226-2.312 2.54 2.54 0 0 0-.404-1.318c-2.037-3.075-4.618-4.634-7.673-4.635a.706.706 0 0 1-.476-.237l-.005-.006a.734.734 0 0 1-.222-.486c.012-1.209 2.332-1.33 3.04-1.34a10.51 10.51 0 0 1 7.798 3.582c.408.427.981.673 1.574.674a2.277 2.277 0 0 0 2.226-2.312 2.54 2.54 0 0 0-.404-1.318c-1.576-2.377-3.305-4.52-7.094-4.635-.67 0-.7-.224-.7-.73 0-.804 1.179-1.317 3.074-1.34 3.19 0 6.49 2.104 8.35 4.191.409.428.982.673 1.574.673a2.276 2.276 0 0 0 2.226-2.312 2.538 2.538 0 0 0-.404-1.317c-1.512-2.282-4.433-3.939-7.623-4.323l-.332-.04.285-.187.004-.003a7.864 7.864 0 0 1 4.67-1.545c3.677.075 6.618 3.13 6.554 6.81a7.027 7.027 0 0 1-.204 1.69 24.679 24.679 0 0 1-4.377 9.556 22.922 22.922 0 0 1-10.14 7.503c-1.49.549-3.05.827-4.64.827h-.075c-3.818 0-9.482-2.86-9.482-6.81 0-1.008 1.003-2.553 1.87-2.553Zm2.814-3.038v-.016c.037.004.074.014.112.015 2.764 0 5.02 1.375 6.896 4.204.15.235.235.506.244.781a1.32 1.32 0 0 1-1.285 1.338c-.334 0-.66-.139-.89-.375-1.33-1.5-3.444-3.43-6.753-3.803.237-1.138.869-2 1.598-2.13l.084-.014Zm6.44-6.081v-.012c.035.002.06.015.096.015 3.34.098 4.784 1.882 6.323 4.204.15.235.235.506.244.781a1.32 1.32 0 0 1-1.286 1.338 1.257 1.257 0 0 1-.89-.376 11.408 11.408 0 0 0-6.762-3.72c.247-1.328 1.03-2.139 2.182-2.223l.093-.007Zm5.902-5.401c.146.115.312.205.509.23 3.54.397 5.955 2.28 7.034 3.908.15.234.236.504.245.782a1.32 1.32 0 0 1-1.285 1.336c-.339 0-.656-.135-.89-.373-1.597-1.795-4.426-3.846-7.59-4.362a3.754 3.754 0 0 1 1.977-1.52Z" fill="#4fd675"/><path d="M0 0h34v34H0z" fill="none"/></svg>