<svg xmlns="http://www.w3.org/2000/svg" width="139.071" height="29">
	<g fill="#cfd1d6">
		<path d="M8.17 14.545c0 2.452-1.315 4.092-3.383 4.092a2.325 2.325 0 01-2.513-1.6l-.157.013.187 1.776v2.467h-2.3V10.66h2.23l-.22 2.26.162.015a2.439 2.439 0 012.719-2.483c1.96 0 3.275 1.626 3.275 4.093zm-2.112 0c0-1.4-.65-2.158-1.876-2.158-1.242 0-1.907.754-1.907 2.158s.665 2.157 1.907 2.157c1.226 0 1.876-.754 1.876-2.157zm11.183 0a4.034 4.034 0 11-4.033-4.093 3.831 3.831 0 014.033 4.093zm-2.113 0c0-1.389-.665-2.142-1.92-2.142s-1.921.753-1.921 2.142.665 2.141 1.921 2.141 1.92-.738 1.92-2.141z" fill-rule="evenodd"/>
		<path d="M21.323 16.568c-.487 0-.723-.295-.723-.856V7.704h-2.187v8.347c0 1.6.828 2.586 2.335 2.586a3.789 3.789 0 001.669-.355l-.192-1.921a2.21 2.21 0 01-.902.207zm6.46-2.866l-1.727-.4c-.548-.119-.725-.253-.725-.533 0-.4.339-.56 1.167-.56a6.946 6.946 0 012.762.62l.193-1.907a8.7 8.7 0 00-2.881-.473c-2.054 0-3.281.9-3.281 2.408a2.139 2.139 0 001.891 2.291l1.729.442c.679.178.871.325.871.665-.014.445-.325.592-1.226.592a7.069 7.069 0 01-2.94-.547l-.206 1.966a9.681 9.681 0 003.146.369c2.039 0 3.265-.872 3.265-2.513a2.3 2.3 0 00-2.039-2.42z"/>
		<path d="M36.765 10.66h2.232v7.77h-2.26l.257-2.436-.168-.016c-.194 1.759-1.021 2.66-2.72 2.66-1.966 0-3.279-1.626-3.279-4.092s1.329-4.093 3.441-4.093a2.28 2.28 0 012.453 1.418l.164-.013zm-.044 3.885c0-1.4-.665-2.158-1.905-2.158s-1.877.754-1.877 2.158.65 2.157 1.877 2.157 1.904-.754 1.904-2.157z" fill-rule="evenodd"/>
		<path d="M44.513 16.569c-.753 0-.99-.252-.99-1.092v-2.823h1.847V10.66h-1.847V8.708l-2.187.325v1.627h-1.183v1.994h1.183v3.412a2.332 2.332 0 002.541 2.571 4.391 4.391 0 001.921-.355l-.208-1.935a2.736 2.736 0 01-1.077.222zM49.002 12.947l.164.016c.192-1.709 1.009-2.555 2.673-2.555 1.8 0 2.837 1.143 2.837 3.149v4.932h-2.2v-4.664c0-.951-.462-1.456-1.323-1.456-1.233 0-1.767.5-1.767 1.634v4.486h-2.2v-7.812h2.036zm7.055 1.634a3.819 3.819 0 013.847-4.114c2.2 0 3.669 1.589 3.669 3.967a6.01 6.01 0 01-.044.742h-6.1v-1.381h4.514l-.416.491c0-1.322-.623-1.931-1.619-1.931-1.158 0-1.767.756-1.767 2.2 0 1.471.549 2.185 2.138 2.185a4.083 4.083 0 002.467-.922l.8 1.634a4.936 4.936 0 01-3.312 1.249 3.8 3.8 0 01-4.177-4.124zm15.285-3.892l1.767 5.467-.371.014 1.6-5.481h2.14l-2.481 7.8h-2.109l-1.9-5.779h.52l-1.872 5.779h-2.139l-2.525-7.8h2.257l1.6 5.467-.371-.015 1.784-5.451zm12.346 5.468c0 1.574-1.249 2.54-3.284 2.54a7.81 7.81 0 01-3.208-.7l.446-1.65a7.378 7.378 0 002.733.55c.831 0 1.263-.224 1.263-.684 0-.357-.18-.534-.818-.668l-1.575-.342a2.223 2.223 0 01-2.05-2.316c0-1.5 1.263-2.421 3.327-2.421a6.793 6.793 0 012.852.61l-.386 1.632a6.78 6.78 0 00-2.525-.474c-.8 0-1.218.208-1.218.609 0 .3.193.461.668.565l1.68.355a2.314 2.314 0 012.095 2.394zM84.473 17.285a1.381 1.381 0 111.382 1.381 1.3 1.3 0 01-1.382-1.381z"/>
		<path d="M88.603 10.676h2.243l-.223 2.272.164.016a2.451 2.451 0 012.733-2.5c1.975 0 3.3 1.634 3.3 4.114s-1.321 4.115-3.4 4.115a2.333 2.333 0 01-2.524-1.6l-.159.011.187 1.787v2.48h-2.316V10.676zm6.09 3.906c0-1.41-.653-2.169-1.887-2.169s-1.915.758-1.915 2.169.668 2.169 1.915 2.169 1.886-.757 1.886-2.169z" fill-rule="evenodd"/>
		<path d="M129.081.798a15.058 15.058 0 00-17.6 6.3q.776 1.668 3.967-.993c4.975-4.148 7.566-6.037 13.633-5.307zM121.236 5.38c-1.529 1.12-3.75 2.815-5.326 3.868-1.861 1.245-4.463 3-5.722.684a11.676 11.676 0 00-.54 2.292 2.825 2.825 0 002.964 2.4c2.784.047 5.362-2.355 9.3-5.28 4.142-3.073 7.025-5.091 10.4-4.7a6.683 6.683 0 014.932 2.831 14.287 14.287 0 00-4.769-5.016c-2.447-1.567-6.301-.696-11.239 2.921zM119.423 28.203a15.06 15.06 0 0017.6-6.3q-.776-1.668-3.967.993c-4.97 4.148-7.561 6.036-13.633 5.307zm7.844-4.582c1.53-1.12 3.751-2.815 5.326-3.867 1.861-1.245 4.463-3 5.724-.684a11.775 11.775 0 00.537-2.293 2.824 2.824 0 00-2.963-2.4c-2.784-.047-5.363 2.355-9.3 5.28-4.142 3.072-7.025 5.09-10.4 4.7a6.682 6.682 0 01-4.929-2.838 14.271 14.271 0 004.769 5.016c2.449 1.573 6.304.703 11.241-2.916z"/>
		<path d="M114.034 21.668c3.535.5 7.692-2.741 11.042-5.259 3.142-2.364 7.013-5.268 9.915-5.234a4.314 4.314 0 014.08 2.581 31.722 31.722 0 00-.511-3.035 4.658 4.658 0 00-4.721-3.507c-3.455.015-7.318 3.006-10.4 5.27-3.825 2.81-7.252 5.753-10.89 5.081-1.953-.362-2.8-1.264-3.078-2.067a28.906 28.906 0 00.5 3 5 5 0 004.059 3.168z"/>
		<path d="M102.014 16.467l.209 1.961a4.864 4.864 0 01-1.8.268c-1.381 0-2.243-1-2.243-2.6V7.704h2.2v8.051c0 .565.238.862.684.862a2.691 2.691 0 00.951-.15zm31.824-9.253c-3.459.015 3.35-.015.001 0z"/>
	</g>
</svg>