<svg xmlns="http://www.w3.org/2000/svg" width="125.062" height="29" viewBox="0 0 125.062 29">
	<path fill="#ffc700" d="M9.436 7.756c-3.275 0-4.873 1.6-5.247 4.807l-.309-.022.419-4.388h-4.3v20.636h4.443v-4.784l-.353-3.45.3-.022c.518 1.775 2.028 3.1 4.85 3.1 3.991 0 6.526-3.186 6.526-7.937-.002-4.791-2.537-7.94-6.329-7.94zM8.069 19.872c-2.392 0-3.682-1.456-3.682-4.178s1.29-4.189 3.682-4.189c2.37 0 3.615 1.466 3.615 4.189s-1.245 4.178-3.615 4.178zM25.486 7.756c-4.674 0-7.782 3.153-7.782 7.937s3.109 7.937 7.782 7.937 7.794-3.153 7.794-7.937-3.109-7.937-7.794-7.937zm0 12.093c-2.425 0-3.7-1.433-3.7-4.156 0-2.7 1.279-4.156 3.7-4.156s3.715 1.456 3.715 4.156c0 2.723-1.289 4.156-3.715 4.156zm15.665-.231c-.938 0-1.4-.574-1.4-1.664V2.421H35.54v16.194c0 3.1 1.588 5.015 4.5 5.015a7.274 7.274 0 0 0 3.229-.694l-.375-3.726a4.354 4.354 0 0 1-1.743.408zm12.467-5.556-3.329-.783c-1.059-.22-1.4-.485-1.4-1.025 0-.772.65-1.092 2.249-1.092a13.348 13.348 0 0 1 5.335 1.2l.375-3.693a16.574 16.574 0 0 0-5.566-.915c-3.958 0-6.328 1.742-6.328 4.663 0 2.436 1.113 3.781 3.648 4.443l3.341.86c1.311.342 1.676.628 1.676 1.29-.023.86-.628 1.146-2.359 1.146a13.5 13.5 0 0 1-5.677-1.058l-.4 3.814a18.405 18.405 0 0 0 6.074.716c3.936 0 6.295-1.7 6.295-4.872.002-2.379-1.134-4.044-3.934-4.694zM71.19 10.48l-.32.022c-.684-1.631-1.885-2.745-4.729-2.745-4.079 0-6.647 3.176-6.647 7.937 0 4.784 2.536 7.937 6.328 7.937 3.285 0 4.883-1.753 5.247-5.159l.331.033-.5 4.718h4.365V8.153h-4.307zm-4 9.392c-2.359 0-3.615-1.456-3.615-4.178s1.257-4.189 3.615-4.189c2.4 0 3.682 1.466 3.682 4.189s-1.281 4.178-3.684 4.178zm18.718-.254c-1.455 0-1.907-.485-1.907-2.127v-5.468h3.561V8.154h-3.561V4.373l-4.222.628v3.153h-2.282v3.869h2.282v6.614c0 3.274 1.907 4.994 4.905 4.994a8.271 8.271 0 0 0 3.7-.694l-.4-3.748a5.428 5.428 0 0 1-2.078.429z"/>
	<path fill="#fbad18" d="M105.506 28.205a14.954 14.954 0 0 0 17.517-6.305s-.772-1.665-3.946 1c-4.951 4.147-7.53 6.032-13.571 5.305zm7.816-4.586c1.522-1.113 3.727-2.811 5.292-3.869 1.852-1.245 4.443-3 5.7-.683a13.2 13.2 0 0 0 .54-2.293 2.826 2.826 0 0 0-2.954-2.392c-2.767-.056-5.335 2.348-9.26 5.28-4.123 3.064-6.989 5.081-10.34 4.7a6.7 6.7 0 0 1-4.916-2.833 14.3 14.3 0 0 0 4.751 5.016c2.434 1.561 6.27.69 11.187-2.927z"/>
	<path fill="#ffc700" d="M100.149 21.668c3.516.508 7.65-2.744 10.979-5.258 3.131-2.359 6.978-5.269 9.866-5.236a4.3 4.3 0 0 1 4.067 2.579c-.055-.562-.32-2.227-.518-3.031a4.632 4.632 0 0 0-4.7-3.506c-3.44.011-7.276 3.01-10.34 5.269-3.814 2.811-7.221 5.754-10.836 5.082-1.951-.364-2.789-1.268-3.064-2.073a26.754 26.754 0 0 0 .5 3.01 4.983 4.983 0 0 0 4.046 3.164z"/>
	<path fill="#fff32d" d="M107.314 5.386c-1.521 1.113-3.737 2.811-5.3 3.859-1.852 1.245-4.443 3.01-5.7.683a12.439 12.439 0 0 0-.529 2.293 2.8 2.8 0 0 0 2.943 2.4c2.778.055 5.335-2.359 9.26-5.28 4.123-3.076 6.989-5.093 10.351-4.7a6.672 6.672 0 0 1 4.905 2.833 14.3 14.3 0 0 0-4.751-5.015c-2.437-1.57-6.273-.684-11.179 2.927z"/>
	<path fill="#ffe300" d="M115.119.801a14.954 14.954 0 0 0-17.517 6.294s.772 1.676 3.946-.992c4.951-4.145 7.53-6.03 13.571-5.302z"/>
</svg>