<svg xmlns="http://www.w3.org/2000/svg" viewBox="0 0 34 34"><path d="M19.619 27.802h.01a1.993 1.993 0 0 0 1.964-2.289l-.015-.096-3.588 1.528.058.075c.37.49.957.782 1.571.782Zm-5.246-2.868h.01c.612 0 1.199-.292 1.569-.781l.058-.077-3.587-1.526-.015.095a1.991 1.991 0 0 0 1.964 2.288Z" fill="none"/><path d="M22.564 13.675a1.347 1.347 0 0 1-.545.117l-8.2.002h-1.84c-.198 0-.383-.043-.551-.118l-.563.754a1.99 1.99 0 0 0-.397 1.193v.331h.856v.606h-.856v12.125a1.513 1.513 0 0 0 1.508 1.51h10.037a1.512 1.512 0 0 0 1.508-1.51V16.56h-10.89v-.606h10.89v-.33a2 2 0 0 0-.396-1.193l-.565-.756Zm-8.67 14.933a.885.885 0 0 1-.882-.88.885.885 0 0 1 .881-.882c.486.001.881.396.881.88s-.395.88-.88.882Zm8.302-3.892c.15.35.226.72.225 1.101a2.799 2.799 0 0 1-2.793 2.79h-.002a2.782 2.782 0 0 1-2.57-1.703l-.157-.37 5.138-2.186.16.368Zm-1.612-6.472a.882.882 0 0 1 0 1.762.885.885 0 0 1-.88-.88c0-.487.395-.882.88-.882Zm-.955 3.823c.485 0 .88.395.88.88a.885.885 0 0 1-.88.882.882.882 0 0 1 0-1.762Zm-4.78-2.867c.486 0 .88.395.882.88a.881.881 0 0 1-1.762 0 .884.884 0 0 1 .88-.88Zm2.253 4.464-.157.37a2.783 2.783 0 0 1-2.57 1.707h-.002a2.8 2.8 0 0 1-2.793-2.793 2.75 2.75 0 0 1 .226-1.1l.16-.37 5.136 2.186ZM11.43 12.438c.002.303.25.55.553.55h1.34v-.002h8.697a.555.555 0 0 0 .553-.553v-.005a.54.54 0 0 0-.435-.56c-.04.004-.078.013-.118.013H11.98c-.036 0-.07-.008-.104-.01a.648.648 0 0 0-.45.567Zm0-1.915c0 .304.248.552.552.552h10.037a.554.554 0 0 0 .553-.552.556.556 0 0 0-.553-.554H11.982a.555.555 0 0 0-.552.554Z" fill="none"/><path d="m23.774 13.948-.603-.806c.128-.207.206-.449.206-.71 0-.367-.16-.697-.405-.945a1.355 1.355 0 0 0-.954-2.323H11.98a1.355 1.355 0 0 0-.953 2.325 1.348 1.348 0 0 0-.405.947c0 .26.077.5.204.706l-.602.802a2.792 2.792 0 0 0-.557 1.676v13.063a2.32 2.32 0 0 0 2.314 2.314L22.017 31a2.32 2.32 0 0 0 2.314-2.315V15.623a2.82 2.82 0 0 0-.559-1.675Zm-.248 2.006H12.634v.606h10.892v12.125c0 .831-.676 1.508-1.508 1.51H11.982a1.513 1.513 0 0 1-1.509-1.51V16.56h.856v-.606h-.856v-.33a1.99 1.99 0 0 1 .397-1.194l.564-.754c.168.075.352.118.548.118h1.837l8.2-.002c.194 0 .378-.043.545-.117l.566.756c.256.342.397.765.397 1.192v.33ZM11.982 9.97h10.036c.304 0 .553.249.554.553a.554.554 0 0 1-.553.552H11.982a.553.553 0 0 1 0-1.106Zm0 1.911h10.037c.04 0 .078-.009.118-.012a.54.54 0 0 1 .435.559v.005a.555.555 0 0 1-.553.553h-8.697v.002h-1.34a.556.556 0 0 1-.554-.55.65.65 0 0 1 .45-.567c.035.002.068.01.103.01Z" fill="#4fd675"/><path d="M11.805 21.848c-.15.35-.227.72-.225 1.1a2.8 2.8 0 0 0 2.793 2.793h.002c1.124 0 2.133-.67 2.57-1.706l.156-.37-5.137-2.187-.16.37Zm.58 1.1c0-.1.008-.202.023-.302l.015-.096 3.587 1.526-.058.077c-.37.49-.957.781-1.57.781h-.01a1.991 1.991 0 0 1-1.987-1.986Zm4.671 3.956a2.782 2.782 0 0 0 2.57 1.704h.003a2.799 2.799 0 0 0 2.792-2.79 2.734 2.734 0 0 0-.225-1.102l-.16-.368-5.137 2.186.157.37Zm.934.04 3.588-1.526.015.095a1.993 1.993 0 0 1-1.964 2.289h-.01a1.98 1.98 0 0 1-1.57-.782l-.059-.075Zm-4.097-.098a.885.885 0 0 0-.88.881.882.882 0 1 0 .881-.881Zm5.736-3.017a.885.885 0 0 0 .881-.881.882.882 0 1 0-.88.881Zm-4.78-2.868c.485 0 .88-.395.882-.88-.002-.486-.397-.88-.881-.88s-.88.394-.881.88c0 .485.396.88.88.88Zm5.735-.955a.882.882 0 1 0-.881-.88.885.885 0 0 0 .881.88ZM17.266 4.65c.292.264.593.537.618 1.867v.098h.807l-.001-.102c-.026-1.563-.4-2.024-.886-2.463-.325-.292-.523-.538-.545-1.488l-.003-.098h-.805l.003.102c.026 1.277.368 1.684.812 2.084Zm-1.914 1.433c.292.264.595.536.62 1.869v.098h.804l-.002-.102c-.023-1.565-.397-2.025-.883-2.465-.324-.29-.522-.534-.545-1.486l-.002-.098h-.806l.002.1c.028 1.276.37 1.683.812 2.083Z" fill="#4fd675"/><path d="M0 0h34v34H0z" fill="none"/></svg>