<svg xmlns="http://www.w3.org/2000/svg" width="34" height="34" viewBox="0 0 34 34">
  <g id="przepisy" transform="translate(-365.568 -360.423)">
    <rect id="Rectangle_420-9" data-name="Rectangle 420-9" width="34" height="34" transform="translate(365.568 360.423)" fill="rgba(197,5,60,0)"/>
    <g id="pzepis_1" transform="translate(474.068 361.305)">
      <path id="Path_8810" data-name="Path 8810" d="M-91.394,30.314a2.159,2.159,0,0,0-2.159-2.159h-11.8V10.214h11.8a2.159,2.159,0,0,1,2.159,2.159V30.314Z" transform="translate(-0.059 -0.195)" fill="none" stroke="#9900d9" stroke-linecap="round" stroke-linejoin="round" stroke-width="0.6"/>
      <path id="Path_8811" data-name="Path 8811" d="M-94.216,30.306H-107.5V12.366" transform="translate(0 -0.254)" fill="none" stroke="#9900d9" stroke-linecap="round" stroke-linejoin="round" stroke-width="0.6"/>
      <path id="Path_8812" data-name="Path 8812" d="M-88.413,10.214h-.428A2.159,2.159,0,0,0-91,12.373V30.314a2.159,2.159,0,0,1,2.159-2.159h11.8V26.112" transform="translate(-0.453 -0.195)" fill="none" stroke="#9900d9" stroke-linecap="round" stroke-linejoin="round" stroke-width="0.6"/>
      <path id="Path_8813" data-name="Path 8813" d="M-88.159,30.689h13.284v-4.4" transform="translate(-0.531 -0.636)" fill="none" stroke="#9900d9" stroke-linecap="round" stroke-linejoin="round" stroke-width="0.6"/>
      <line id="Line_224" data-name="Line 224" x1="8.023" transform="translate(-102.457 13.43)" fill="none" stroke="#9900d9" stroke-linecap="round" stroke-linejoin="round" stroke-width="0.6"/>
      <line id="Line_225" data-name="Line 225" x1="8.023" transform="translate(-102.457 16.105)" fill="none" stroke="#9900d9" stroke-linecap="round" stroke-linejoin="round" stroke-width="0.6"/>
      <line id="Line_226" data-name="Line 226" x1="8.023" transform="translate(-102.457 18.779)" fill="none" stroke="#9900d9" stroke-linecap="round" stroke-linejoin="round" stroke-width="0.6"/>
      <line id="Line_227" data-name="Line 227" x1="5.215" transform="translate(-102.457 21.454)" fill="none" stroke="#9900d9" stroke-linecap="round" stroke-linejoin="round" stroke-width="0.6"/>
      <path id="Path_8814" data-name="Path 8814" d="M-80.507,3.488V9.079A2.631,2.631,0,0,1-82.444,11.5a.175.175,0,0,0-.124.173l.333,11.159a1.261,1.261,0,0,1-1.257,1.257h0a1.261,1.261,0,0,1-1.258-1.257l.333-11.159a.177.177,0,0,0-.125-.173A2.631,2.631,0,0,1-86.48,9.079V3.488" transform="translate(-0.577 -0.01)" fill="none" stroke="#9900d9" stroke-linecap="round" stroke-linejoin="round" stroke-width="0.6"/>
      <line id="Line_228" data-name="Line 228" y1="4.875" transform="translate(-85.058 3.478)" fill="none" stroke="#9900d9" stroke-linecap="round" stroke-linejoin="round" stroke-width="0.6"/>
      <line id="Line_229" data-name="Line 229" y1="4.875" transform="translate(-83.084 3.478)" fill="none" stroke="#9900d9" stroke-linecap="round" stroke-linejoin="round" stroke-width="0.6"/>
      <path id="Path_8815" data-name="Path 8815" d="M-77.806,15.116h1.322l-.571,7.748A1.23,1.23,0,0,0-75.83,24.09h0A1.23,1.23,0,0,0-74.6,22.864V4.338c0-.858-.494-1-.841-.72a2.958,2.958,0,0,0-.692,1.113,35.561,35.561,0,0,0-2.135,9.9A.466.466,0,0,0-77.806,15.116Z" transform="translate(-0.802 -0.01)" fill="none" stroke="#9900d9" stroke-linecap="round" stroke-linejoin="round" stroke-width="0.6"/>
      <line id="Line_230" data-name="Line 230" x1="0.126" y1="0.126" transform="translate(-104.335 3.119)" fill="none" stroke="#9900d9" stroke-linecap="round" stroke-linejoin="round" stroke-width="0.6"/>
      <line id="Line_231" data-name="Line 231" x1="0.126" y1="0.126" transform="translate(-102.536 4.918)" fill="none" stroke="#9900d9" stroke-linecap="round" stroke-linejoin="round" stroke-width="0.6"/>
      <line id="Line_232" data-name="Line 232" x1="0.126" y2="0.126" transform="translate(-104.335 4.918)" fill="none" stroke="#9900d9" stroke-linecap="round" stroke-linejoin="round" stroke-width="0.6"/>
      <line id="Line_233" data-name="Line 233" x1="0.126" y2="0.126" transform="translate(-102.536 3.119)" fill="none" stroke="#9900d9" stroke-linecap="round" stroke-linejoin="round" stroke-width="0.6"/>
      <line id="Line_234" data-name="Line 234" y1="0.404" x2="0.404" transform="translate(-96.719 6.763)" fill="none" stroke="#9900d9" stroke-linecap="round" stroke-linejoin="round" stroke-width="0.6"/>
      <line id="Line_235" data-name="Line 235" y1="0.404" x2="0.404" transform="translate(-94.538 4.582)" fill="none" stroke="#9900d9" stroke-linecap="round" stroke-linejoin="round" stroke-width="0.6"/>
      <line id="Line_236" data-name="Line 236" x1="0.404" y1="0.404" transform="translate(-94.538 6.763)" fill="none" stroke="#9900d9" stroke-linecap="round" stroke-linejoin="round" stroke-width="0.6"/>
      <line id="Line_237" data-name="Line 237" x1="0.404" y1="0.404" transform="translate(-96.719 4.582)" fill="none" stroke="#9900d9" stroke-linecap="round" stroke-linejoin="round" stroke-width="0.6"/>
    </g>
  </g>
</svg>
