<svg xmlns="http://www.w3.org/2000/svg" width="34" height="34" viewBox="0 0 34 34"><defs><style>.a{fill:#747474;opacity:0;}.b{fill:#dc003f;}</style></defs><rect class="a" width="34" height="34"/><g transform="translate(-1 -1.1)"><path class="b" d="M5.064,15.51A5.168,5.168,0,1,0,10.213,9.7,19.478,19.478,0,0,1,18.5,8.1c7.477,0,12.5,2.885,12.5,7.179a.5.5,0,0,0,1,0C32,10.387,26.575,7.1,18.5,7.1c-5.628,0-10,1.637-12.107,4.289a5.149,5.149,0,0,0-1.382,3.164C5,14.667,5,14.771,5,14.88c0,.036.01.069.011.1-.008.1-.011.192-.011.294A.479.479,0,0,0,5.064,15.51Zm9.3-.63a4.175,4.175,0,0,1-8.349.112A5.215,5.215,0,0,1,7.2,11.982a4.159,4.159,0,0,1,7.163,2.9Z"/><path class="b" d="M31.936,20.49A5.168,5.168,0,1,0,26.787,26.3,19.472,19.472,0,0,1,18.5,27.9C11.023,27.9,6,25.015,6,20.721a.5.5,0,0,0-1,0C5,25.613,10.425,28.9,18.5,28.9c5.622,0,9.989-1.633,12.1-4.279a5.145,5.145,0,0,0,1.388-3.17C32,21.336,32,21.23,32,21.12c0-.038-.01-.073-.011-.111.007-.1.011-.188.011-.288A.479.479,0,0,0,31.936,20.49Zm-9.3.63a4.175,4.175,0,0,1,8.349-.112,5.219,5.219,0,0,1-1.194,3.02A4.161,4.161,0,0,1,22.64,21.12Z"/></g></svg>