<svg xmlns="http://www.w3.org/2000/svg" width="63" height="29" viewBox="0 0 63000 29000"><path d="m30373 20113 1199-736c185-113 417-37 517 161 424 841 1148 1441 2331 1441 1248 0 1746-645 1746-1281 0-848-730-1174-2345-1663-1662-506-3277-1239-3277-3407 0-2152 1710-3390 3573-3390 1651 0 2944 821 3706 2207a406 406 0 01-133 540l-1160 703a363 363 0 01-505-142c-388-677-944-1212-1895-1212-900 0-1442 577-1442 1229 0 700 420 1076 2066 1597 1724 570 3557 1173 3557 3505 0 2135-1630 3440-3945 3440-2070 0-3480-978-4140-2485a405 405 0 01 148-507Zm22582-2924c0 3301 2657 5926 5959 5926 1234 0 2434-360 3451-1120 157-118 309-245 456-382 173-160 263-398 50-619l-908-936a348 348 0 00-486-19 3938 3938 0 01-2493 914c-2112 0-3696-1750-3696-3813 0-2080 1568-3846 3681-3846 881 0 1747 320 2427 876 262 214 398 225 597 26l864-894c170-165 237-379-40-620-1149-1002-2355-1453-3899-1452a5948 5948 0 00-5959 5960ZM0 17189c0 3301 2657 5926 5959 5926 1234 0 2434-360 3451-1120 157-118 309-245 456-382 173-160 263-398 49-619l-910-936a348 348 0 00-486-19 3938 3938 0 01-2493 914c-2113 0-3697-1750-3697-3813 0-2080 1568-3846 3680-3846 882 0 1748 320 2428 876 262 214 398 225 597 26l865-894c166-165 234-379-43-620C8710 11680 7504 11228 5960 11230a5948 5948 0 00-5959 5959ZM5703 0 1822 10a509 509 0 00-501 423L6 8096a403 403 0 00 416 470l1036-50a532 532 0 00 499-443l342-2037a128 128 0 01 126-107h2222c62 0 116 45 126 107l312 1853a508 508 0 00 527 424l892-44a481 481 0 00 446-585l-467-2106a128 128 0 01 66-141c572-304 1293-991 1545-2324C8390 1355 7344 0 5704 0Zm401 3108c-133 677-586 1186-1557 1186H2744a128 128 0 01-126-149l356-2092a200 200 0 01 197-166h1911c735 0 1225 405 1021 1221ZM12380 445a532 532 0 00-524-434h-1652a510 510 0 00-502 423l-1244 7250a402 402 0 00 416 470l1038-51a530 530 0 00 498-441l733-4295c15-89 144-89 160 0l710 4277a402 402 0 00 416 336l921-45a564 564 0 00 480-319l2010-4193c40-84 167-44 152 48l-660 3877a403 403 0 00 416 470l1045-50a532 532 0 00 498-442L18441 610a510 510 0 00-500-595h-1775c-194 0-370 110-456 283l-2385 4963a76 76 0 01-143-20Zm13633 1023 158-922a459 459 0 00-452-536h-5360a510 510 0 00-501 423L18700 7183a402 402 0 00 416 470l1038-51a530 530 0 00 498-441l345-2010a129 129 0 01 126-106h3099c248 0 460-178 502-422l129-745a377 377 0 00-372-441h-3038a128 128 0 01-126-149l210-1230a200 200 0 01 198-166h3786a510 510 0 00 502-423Zm23428 9997h1470a390 390 0 01 390 390v10631a390 390 0 01-390 390h-1470a390 390 0 01-390-390V11855a390 390 0 01 390-390Zm-31197 9649v1373a390 390 0 01-390 390h-5823a390 390 0 01-387-390V11855a390 390 0 01 390-390h1470a390 390 0 01 390 390v8533c0 186 151 337 337 337h3626a390 390 0 01 390 390Zm8175-292h-4272a275 275 0 00-260 188l-534 1599a390 390 0 01-370 266h-1550a390 390 0 01-368-518l3721-10632a390 390 0 01 368-261h2235c165 0 313 104 367 260l3736 10632a390 390 0 01-368 519h-1543a387 387 0 01-369-266l-533-1600a275 275 0 00-260-187Zm-587-2273-1380-4116a180 180 0 00-342 0l-1382 4116a180 180 0 00 171 237h2763a180 180 0 00 171-237Zm13695 1564 1199-736c185-113 417-37 517 160 424 842 1148 1442 2331 1442 1248 0 1746-645 1746-1281 0-848-730-1174-2345-1663-1662-506-3277-1240-3277-3407 0-2152 1710-3390 3573-3390 1651 0 2944 820 3706 2207a406 406 0 01-133 540l-1160 703a363 363 0 01-505-142c-388-677-944-1212-1895-1212-900 0-1442 577-1442 1229 0 700 420 1076 2066 1597 1724 570 3557 1173 3557 3505 0 2135-1630 3440-3945 3440-2070 0-3480-978-4140-2485a405 405 0 01 148-507Z" fill="#cfd1d6"/></svg>