<svg xmlns="http://www.w3.org/2000/svg" width="63" height="29" viewBox="0 0 6300 2900"><path d="m1372 400-934 2c-60 0-110 43-120 102L1 2348a97 97 0 00 100 113l250-12c60-2 110-47 120-106l82-490a30 30 0 01 30-26h535c15 0 28 10 30 26l76 446c10 60 64 105 126 102l215-10a118 118 0 00 108-142l-113-506a31 31 0 01 16-34c138-74 311-240 372-560 71-423-180-750-575-750Zm97 748c-32 163-141 286-375 286H660a30 30 0 01-30-36l86-504c4-23 24-40 47-40h460c177 0 295 98 246 294ZM2980 507a128 128 0 00-127-104h-397c-60 0-111 43-121 101l-300 1745a97 97 0 00 100 113l250-12c60-3 110-47 120-106l177-1034c3-21 34-21 38 0l171 1030c8 48 51 83 100 80l222-10c50-3 94-32 116-77l483-1010c10-20 40-10 37 12l-159 933a97 97 0 00 100 113l252-12c60-3 110-47 120-106l276-1617a123 123 0 00-120-143H3890c-47 0-90 26-110 68l-574 1195a18 18 0 01-34-5L2979 507Zm3280 246 38-222a110 110 0 00-108-128H4900c-60 0-110 43-120 101L4500 2130a97 97 0 00 100 113l250-12c60-3 110-47 120-107l83-483a30 30 0 01 30-26h746c60 0 111-43 121-101l31-180a90 90 0 00-90-106h-730a30 30 0 01-30-36l50-296c4-23 24-40 48-40h910c60 0 111-43 121-102Z" fill="#1b3380" fill-rule="evenodd"/></svg>