<svg xmlns="http://www.w3.org/2000/svg" width="63" height="29" viewBox="0 0 63000 29000"><path d="m8866 8147 1037-51a530 530 0 00 497-441l733-4292c15-89 144-89 158 0l713 4274a401 401 0 00 416 335l920-45a562 562 0 00 480-319l2009-4190c40-84 167-44 152 48l-660 3874a402 402 0 00 416 469l1044-51a530 530 0 00 497-441l1150-6711a510 510 0 00-502-595h-1773a510 510 0 00-456 283l-2383 4958c-32 66-130 52-143-20l-800-4787a532 532 0 00-523-434h-1650a510 510 0 00-502 423L8450 7678a402 402 0 00 416 469Zm10235-501 1037-51a530 530 0 00 497-441l345-2008a129 129 0 01 126-106h3096a510 510 0 00 502-422l129-744a377 377 0 00-371-440h-3036a128 128 0 01-126-150l210-1229a199 199 0 01 198-166h3782a510 510 0 00 502-425l158-920a458 458 0 00-451-536h-5353a510 510 0 00-502 422l-1158 6744a402 402 0 00 416 470Zm43823 5401a322 322 0 00-263-528l-4829 238a782 782 0 00-578 299l-2967 3795a181 181 0 01-306-33l-1597-3305a797 797 0 00-758-450l-4394 216 2922-3502a322 322 0 00-263-528l-4829 238a782 782 0 00-578 299l-2967 3795a181 181 0 01-306-33l-1597-3305a797 797 0 00-758-450l-4774 235a379 379 0 00-314 559l3467 6389a499 499 0 01-56 558l-3372 4028-1580-8035a561 561 0 00-578-453l-6863 338a663 663 0 00-553 353l-5750 10928 2310-13438a445 445 0 00-460-520l-5954 295a661 661 0 00-576 402l-3421 8066c-47 112-213 85-223-35l-665-7650a563 563 0 00-587-513l-5853 288a660 660 0 00-620 549L8 26246a445 445 0 00 460 519l4244-210a562 562 0 00 527-465l1080-6283c22-130 211-121 221 10l491 6079a562 562 0 00 588 516l3147-155a563 563 0 00 491-344l2653-6331c57-135 260-76 235 68l-1020 5949a444 444 0 00 460 518l4245-210c6 0 11-2 17-3l-1204 2287a444 444 0 00 415 650l4407-215a844 844 0 00 718-475l539-1115a538 538 0 01 460-304l5624-277a317 317 0 01 329 270l151 1010a563 563 0 00 583 478l4546-224a562 562 0 00 524-670l-444-2260 1766-87a990 990 0 00 739-387l3019-3937a181 181 0 01 308 35l1682 3653a561 561 0 00 538 326l4354-215-2846 3400a381 381 0 00 310 625l4667-230a990 990 0 00 738-387l3019-3937a181 181 0 01 308 35l1682 3653a561 561 0 00 538 326l4898-241a444 444 0 00 370-652l-3448-6490a580 580 0 01 67-643l5720-6858Zm-34791 9444-2874 142a244 244 0 01-232-351l1786-3675a400 400 0 01 340-224l433-21a308 308 0 01 320 261l532 3497a322 322 0 01-303 370Zm21816-1689-2270 2712-3313-6236a580 580 0 01 67-644l2189-2624 3383 6234a499 499 0 01-56 558ZM420 8559l1036-50a530 530 0 00 498-442l342-2036a128 128 0 01 126-107h2220c63 0 117 45 127 107l312 1852a510 510 0 00 527 424l891-44a481 481 0 00 446-584l-467-2105a128 128 0 01 66-141c572-304 1292-991 1543-2322C8383 1356 7337 0 5698 0L1821 10a508 508 0 00-500 423L6 8090a402 402 0 00 415 469ZM2973 2050a199 199 0 01 197-165h1910c734 0 1224 405 1021 1220-133 677-585 1186-1556 1186h-1800a128 128 0 01-127-150l356-2090Z" fill="#cfd1d6"/></svg>