<svg xmlns="http://www.w3.org/2000/svg" width="34" height="34" viewBox="0 0 34 34"><defs><style>.a{fill:#747474;opacity:0;}.b{fill:#dc003f;}</style></defs><rect class="a" width="34" height="34"/><path class="b" d="M31.99,27.187a.5.5,0,0,0-.59-.391,8.462,8.462,0,0,1-9.985-6.6A8.664,8.664,0,0,1,21.267,19h5.3a.5.5,0,0,0,0-1h-5.3a8.457,8.457,0,0,1,10.122-7.8.5.5,0,1,0,.2-.98A9.451,9.451,0,0,0,20.264,18h-3.53a9.564,9.564,0,0,0-.169-1.392A9.466,9.466,0,0,0,5.4,9.224a.5.5,0,0,0,.2.98,8.467,8.467,0,0,1,9.986,6.6A8.51,8.51,0,0,1,15.733,18h-5.3a.5.5,0,1,0,0,1h5.305A8.461,8.461,0,0,1,5.613,26.8a.5.5,0,1,0-.2.98A9.45,9.45,0,0,0,16.736,19h3.531a9.458,9.458,0,0,0,9.422,8.97,9.614,9.614,0,0,0,1.911-.194A.5.5,0,0,0,31.99,27.187Z" transform="translate(-2 -2.03)"/></svg>