<svg xmlns="http://www.w3.org/2000/svg" viewBox="0 0 34 34"><path d="m23.378 14.253-.037-.069-1.257.506c.13.498.208 1.01.208 1.53a6.067 6.067 0 0 1-2.11 4.572 45.26 45.26 0 0 0 1.976-.17c.086-.01.167-.023.252-.033a6.263 6.263 0 0 0 1.594-3.857 5.25 5.25 0 0 0-.626-2.48Zm-1.94-2.204-.004-.095a3.687 3.687 0 0 0-3.671-3.511c-2.047 0-3.535 1.487-3.66 3.625a5.586 5.586 0 0 1 3.332 3.567l5.905-2.686a5.271 5.271 0 0 1 1.98-1.044c.121-.258.2-.53.223-.814a1.632 1.632 0 0 0-1.626-1.622 1.63 1.63 0 0 0-1.626 1.626v.955h-.852Zm-3.02-.836-.074-.045a1.109 1.109 0 0 0-1.16.002l-.072.045-.552-.647.09-.063a1.95 1.95 0 0 1 1.115-.351c.398 0 .782.12 1.11.346l.092.063-.55.65ZM12.12 9.469a1.63 1.63 0 0 0-1.62 1.626c0 .283.085.556.225.802a5.694 5.694 0 0 1 1.398-.203c.395 0 .78.044 1.151.123.033-.486.125-.957.3-1.39a1.924 1.924 0 0 0-1.454-.958Zm-.932 11.177-1.865-2.95-1.682 2.43c.987.202 2.18.382 3.547.52Zm-7.105-5.808c-.138.447-.226.91-.243 1.387-.024.641.07 1.282.26 1.895l4.38-1.432-4.397-1.85Z" fill="none"/><path d="M26.486 12.543a4.745 4.745 0 0 0-2.528 1.025l.024.04c.57.944.872 2.025.87 3.127a7.327 7.327 0 0 1-1.217 3.68l.13-.02c2.668-.43 4.956-1.146 5.44-1.702a3.778 3.778 0 0 0 .953-2.475 3.685 3.685 0 0 0-3.672-3.675Zm1.106 3.588-.013-.084a1.111 1.111 0 0 0-.927-.928l-.084-.013v-.852l.11.012c.922.094 1.66.832 1.755 1.755l.01.11h-.85Z" fill="none"/><path d="M25.328 20.966c-2.524.52-5.532.805-8.472.805-.042 0-.084.003-.127.008l-.079.011v.072c.025.291.08.581.166.862a8.7 8.7 0 0 1 .344 2.204 2.308 2.308 0 0 1-2.48 2.482 2.317 2.317 0 0 1-2.474-2.483 5.966 5.966 0 0 1 .7-2.406c.114-.238.22-.494.307-.757l.027-.1-.104-.006c-1.638-.103-6.126-.475-8.35-1.517.943 2.705 2.737 7.326 4.041 8.59 1.337 1.3 3.23 1.42 7.907 1.42s6.57-.12 7.906-1.414c1.305-1.265 3.1-5.86 4.1-8.773-.815.365-1.984.714-3.419 1.01Zm-1.042 5.925-.045.09-.755-.384.045-.088c.33-.65.692-1.446 1.077-2.368l.038-.093.786.325-.039.092c-.387.93-.76 1.747-1.107 2.431Zm-3.661-18.25.815-1.585-1.397-.624-.667 1.477c.46.176.875.43 1.249.74Zm-14.837 3.66a5.33 5.33 0 0 0-1.475 1.937l3.84 1.615-2.288-3.62-.077.068Zm1.168 7.68 1.882-2.72-4.51 1.475c.03.064.05.13.08.192.24.334 1.127.714 2.548 1.053ZM20.997 4.313l-.687 1.52 1.427.638.75-1.46-1.49-.698z" fill="none"/><path d="M12.126 12.544a4.985 4.985 0 0 0-3.814 1.96l3.944 6.24c.366.028.74.055 1.128.078h.005a.69.69 0 0 1 .462.179l.006.01a.86.86 0 0 1 .23.644v.006c-.059.43-.196.84-.41 1.218a5.281 5.281 0 0 0-.617 2.068c-.045.39.063.77.304 1.075a1.446 1.446 0 0 0 1.308.545l.012-.002.011.002a1.456 1.456 0 0 0 1.615-1.616l.002-.01A7.93 7.93 0 0 0 16 22.972l-.014-.057a4.417 4.417 0 0 1-.183-1.048v-.006c.004-.35.145-.933 1.05-.933h.05c.55 0 1.102-.028 1.653-.048l.053-.027a5.226 5.226 0 0 0 2.83-4.63 5.2 5.2 0 0 0-.155-1.207l-3.67 1.48c.036.247.06.498.06.755 0 .841-.195 1.686-.565 2.443l-.045.093-.75-.4.043-.086a4.75 4.75 0 0 0 .468-2.05 4.714 4.714 0 0 0-4.701-4.7Zm1.45 2.615-.07-.057a2.18 2.18 0 0 0-1.371-.488h-.018a2.17 2.17 0 0 0-1.37.487l-.07.058-.602-.6.08-.077a2.966 2.966 0 0 1 1.963-.743h.016c.724 0 1.42.264 1.963.743l.08.07-.6.6Z" fill="none"/><path d="m26.678 14.265-.11-.01v.85l.084.014c.48.075.852.448.927.928l.013.084h.852l-.012-.11a1.973 1.973 0 0 0-1.754-1.756Zm-8.913-4.111a1.95 1.95 0 0 0-1.115.351l-.09.063.552.647.072-.045a1.105 1.105 0 0 1 1.16-.002l.073.045.55-.65-.09-.062a1.963 1.963 0 0 0-1.11-.347Zm-5.63 3.59h-.017c-.723 0-1.42.265-1.963.744l-.08.07.601.6.07-.057a2.175 2.175 0 0 1 1.371-.481h.018c.498 0 .985.173 1.372.487l.07.057.6-.6-.08-.071a2.962 2.962 0 0 0-1.963-.743Zm12.511 10.3-.038.092a35.587 35.587 0 0 1-1.077 2.367l-.045.088.755.39.045-.09c.348-.684.72-1.502 1.107-2.43l.039-.093-.786-.324ZM12.826 2.567h.65v1.676h-.65zM7.822 3.691l.6-.249.642 1.548-.6.249zM3.63 6.647l.46-.46 1.184 1.185-.46.46z" fill="#4fd675"/><path d="M31.011 16.218a4.538 4.538 0 0 0-4.529-4.524h-.005c-.056.003-.11.018-.166.023.052-.204.081-.412.08-.622a2.466 2.466 0 0 0-.914-1.903c.965-1.972 2.257-2.682 2.882-2.784l.084-.014v-.852l-.11.01c-1.066.114-2.566 1.16-3.594 3.22a2.448 2.448 0 0 0-.822-.153 2.477 2.477 0 0 0-2.192 1.355 4.51 4.51 0 0 0-.47-.7l1.933-3.772a.937.937 0 0 0 .08-.758.938.938 0 0 0-.507-.571l-1.34-.598a.938.938 0 0 0-.717-.02.932.932 0 0 0-.52.496l-1.637 3.622a4.565 4.565 0 0 0-.785-.08h-.032a4.524 4.524 0 0 0-3.694 1.983 2.505 2.505 0 0 0-1.91-.957 2.487 2.487 0 0 0-2.476 2.477c.002.383.116.746.283 1.085a5.749 5.749 0 0 0-2.1 1.566L6.097 11l-.363.258a6.18 6.18 0 0 0-2.745 4.962 7.44 7.44 0 0 0 .499 2.663l.038.117c.458 1.408 2.84 8.522 4.716 10.341C9.88 30.93 12.156 31 16.74 31s6.861-.07 8.499-1.658c1.88-1.825 4.187-8.702 4.63-10.062l.03-.095-.003-.002a4.58 4.58 0 0 0 1.115-2.965ZM16.741 30.15c-4.677 0-6.57-.122-7.908-1.419-1.304-1.26-3.098-5.88-4.042-8.584 2.226 1.042 6.714 1.414 8.35 1.517l.105.007-.027.1a6.442 6.442 0 0 1-.315.756 5.966 5.966 0 0 0-.698 2.406 2.317 2.317 0 0 0 2.474 2.483 2.259 2.259 0 0 0 .368 0 2.308 2.308 0 0 0 2.112-2.482 8.716 8.716 0 0 0-.344-2.205 4.159 4.159 0 0 1-.165-.862v-.072l.073-.01a.915.915 0 0 1 .127-.009c2.94 0 5.948-.286 8.472-.805 1.434-.294 2.604-.644 3.42-1.01-1 2.914-2.797 7.509-4.102 8.775-1.336 1.297-3.23 1.42-7.906 1.42ZM3.84 16.225c.017-.476.105-.94.243-1.387l4.397 1.85L4.1 18.12a5.704 5.704 0 0 1-.26-1.895Zm9.434-4.408a5.555 5.555 0 0 0-1.15-.123 5.69 5.69 0 0 0-1.4.203 1.628 1.628 0 0 1-.224-.802 1.63 1.63 0 0 1 1.62-1.626 1.92 1.92 0 0 1 1.455.953 4.508 4.508 0 0 0-.3 1.39Zm9.017.233v-.955a1.631 1.631 0 0 1 1.63-1.625 1.63 1.63 0 0 1 1.628 1.62 2.383 2.383 0 0 1-.222.812 5.27 5.27 0 0 0-1.98 1.045l-5.905 2.686a5.586 5.586 0 0 0-3.333-3.568c.126-2.137 1.614-3.624 3.66-3.624a3.687 3.687 0 0 1 3.672 3.514l.005.096h.852Zm-.13 8.572a45.74 45.74 0 0 1-1.974.17 6.067 6.067 0 0 0 2.11-4.572 6.04 6.04 0 0 0-.207-1.53l1.256-.506.038.07a5.25 5.25 0 0 1 .626 2.48 6.264 6.264 0 0 1-1.594 3.855l-.252.03Zm-10.97.024a35.961 35.961 0 0 1-3.544-.52l1.682-2.43 1.865 2.95Zm12.579-.25-.13.019a7.327 7.327 0 0 0 1.219-3.68 6.027 6.027 0 0 0-.871-3.126l-.024-.04a4.745 4.745 0 0 1 2.529-1.026 3.685 3.685 0 0 1 3.67 3.675 3.778 3.778 0 0 1-.953 2.475c-.483.556-2.77 1.272-5.44 1.702Zm-7.405-1.101-.041.086.75.4.046-.093a5.59 5.59 0 0 0 .565-2.442 5.56 5.56 0 0 0-.061-.756l3.67-1.479c.095.398.155.802.154 1.208a5.226 5.226 0 0 1-2.83 4.63l-.05.026c-.552.02-1.103.048-1.653.048h-.053c-.904 0-1.045.584-1.05.933v.006a4.5 4.5 0 0 0 .184 1.048l.015.057a7.93 7.93 0 0 1 .312 1.97v.007a1.456 1.456 0 0 1-1.616 1.616h-.023a1.446 1.446 0 0 1-1.31-.544 1.448 1.448 0 0 1-.301-1.075 5.28 5.28 0 0 1 .617-2.068 3.39 3.39 0 0 0 .41-1.218v-.006a.86.86 0 0 0-.23-.642l-.01-.007a.697.697 0 0 0-.467-.18h-.005a50.122 50.122 0 0 1-1.128-.078l-3.944-6.238a4.985 4.985 0 0 1 3.814-1.96 4.714 4.714 0 0 1 4.7 4.7 4.75 4.75 0 0 1-.467 2.05ZM4.314 14.23a5.331 5.331 0 0 1 1.475-1.937l.077-.067 2.288 3.62-3.84-1.616Zm4.525 3.024-1.882 2.72c-1.42-.34-2.308-.72-2.548-1.054-.03-.062-.05-.128-.08-.192l4.51-1.474ZM21.44 7.05l-.815 1.592a4.503 4.503 0 0 0-1.25-.74l.668-1.476 1.397.624Zm-1.13-1.217.687-1.52 1.49.698-.75 1.466-1.427-.637Z" fill="#4fd675"/><path d="M0 0h34v34H0z" fill="none"/></svg>