<svg xmlns="http://www.w3.org/2000/svg" width="34" height="34" viewBox="0 0 34 34"><defs><style>.a{fill:#747474;opacity:0;}.b{fill:#dc003f;}</style></defs><rect class="a" width="34" height="34"/><path class="b" d="M35.5,27.6a.116.116,0,0,0,0-.018h0a.494.494,0,0,0-.038-.189.418.418,0,0,0-.035-.054.5.5,0,0,0-.068-.1.485.485,0,0,0-.063-.046.46.46,0,0,0-.09-.061.469.469,0,0,0-.078-.021.4.4,0,0,0-.092-.025h-.244c-.081,0-.163-.006-.243,0a2.532,2.532,0,0,1-2.3-2.335,2.4,2.4,0,0,1,0-.379.5.5,0,0,0-.464-.534.512.512,0,0,0-.534.464,3.789,3.789,0,0,0,0,.522,3.5,3.5,0,0,0,1.072,2.263h-2.74A3.838,3.838,0,0,1,25.75,23.25V10.792a4.278,4.278,0,0,0-8.083-1.968,4.256,4.256,0,0,0-7.584,0A4.278,4.278,0,0,0,2,10.792a.5.5,0,0,0,1,0,3.292,3.292,0,1,1,6.583,0V22.708a.5.5,0,0,0,1,0V10.792a3.292,3.292,0,0,1,6.584,0V22.708a.5.5,0,0,0,1,0V10.792a3.292,3.292,0,1,1,6.583,0V23.25a4.838,4.838,0,0,0,4.833,4.833h2.733a3.521,3.521,0,0,0-1.065,2.787.5.5,0,0,0,.5.463h.038a.5.5,0,0,0,.462-.536,2.536,2.536,0,0,1,2.3-2.711c.107.006.217,0,.326,0h.163a12.566,12.566,0,0,0,.169-.046.464.464,0,0,0,.092-.062.533.533,0,0,0,.061-.045.585.585,0,0,0,.063-.093.528.528,0,0,0,.04-.064A.487.487,0,0,0,35.5,27.6Z" transform="translate(-1.5)"/></svg>