<svg xmlns="http://www.w3.org/2000/svg" viewBox="0 0 34 34"><path d="M25.818 23.562c0 1.6-.794 4.306-3.77 4.306a4.42 4.42 0 0 1-2.263-.704 2.32 2.32 0 0 0-1.06-.4 1.562 1.562 0 0 0-1.269.55l-.008.008c-.049.046-.1.094-.153.14l7.565 2.896 2.952-9.672c-.08.005-.15.021-.232.021-1.118 0-1.762 2.167-1.762 2.855Z" fill="none"/><path d="M28.236 13.098c0-1.585.862-2.322 1.695-3.035.834-.715 1.623-1.39 1.623-3.025 0-.633-.205-1.158-2.57-1.2l-5.835 19.573a1.01 1.01 0 0 1-.96.744h-.001a.987.987 0 0 1-.322-.054L4.594 19.327a.993.993 0 0 1-.326-.21c-.73.122-1.114.49-1.127 1.152a.9.9 0 0 0 .282.67c.664.67 2.436 1.07 4.743 1.07 2.15 0 3.273 2.084 3.273 3.202 0 1.36 1.511 2.306 2.868 2.306 1.6 0 2.07-.434 2.523-.853a2.442 2.442 0 0 1 1.906-.8c.537.04 1.054.22 1.499.518.54.356 1.17.557 1.818.582 2.726 0 2.864-2.837 2.864-3.406 0-.526.206-1.465.66-2.286.37-.67 1.018-1.469 2.003-1.469 1.493 0 2.315-1.014 2.315-2.856a2.464 2.464 0 0 0-.79-1.91 2.656 2.656 0 0 1-.87-1.946Z" fill="none"/><path d="M30.518 10.743c-.741.634-1.381 1.181-1.381 2.353.008.513.236 1 .625 1.334l.004.004c.02.018.032.04.05.06l1.117-3.657-.16-.316a9.602 9.602 0 0 1-.255.228ZM8.22 22.915c-.283 0-.615-.01-.962-.026l.38.773 2.802 1.07c-.233-.752-.936-1.817-2.22-1.817ZM18.42 4.82a.05.05 0 0 0 .02-.033.052.052 0 0 0-.05-.06h-5.018l1.407 2.824 3.642-2.73Z" fill="none"/><path d="M31.453 9.848c.55-.637 1.002-1.486 1.002-2.81 0-.84-.388-1.43-1.152-1.754-.68-.288-1.565-.338-2.353-.346a1.007 1.007 0 0 0-.88-.563.999.999 0 0 0-.48.127L16.388 10.78l-1.194-2.396 3.646-2.732c.421-.317.531-.914.25-1.361a1.07 1.07 0 0 0-.893-.478h-5.28L12.37 2.72l-.022-.046-.82.407L17.4 14.86l.023.045.819-.408-1.445-2.9L28.25 5.162l-5.975 20.12-17.572-6.89v-.016l9.393-5.265.085-.048-.43-.803-9.3 5.211a1.03 1.03 0 0 0-.499.785c-1.069.238-1.685.938-1.707 1.998-.01.496.188.98.54 1.324.73.742 2.113 1.08 3.42 1.23l.6 1.223c.12.237.324.417.573.505l3.234 1.24c.335 1.602 2.063 2.648 3.7 2.648.94 0 1.574-.142 2.043-.342l8.125 3.11.058.018.006.002c.08.02.163.031.249.031h.002c.454 0 .858-.305.982-.74l3.058-10.02c1.248-.478 1.967-1.718 1.967-3.526a3.313 3.313 0 0 0-.317-1.503l1.323-4.321a1.022 1.022 0 0 0-.071-.716l-.277-.568ZM18.39 4.728a.05.05 0 0 1 .04.02.052.052 0 0 1 .012.039.05.05 0 0 1-.02.033L14.78 7.552l-1.407-2.825h5.018ZM7.638 23.661l-.379-.773c.347.017.68.026.962.026 1.284 0 1.988 1.065 2.22 1.817l-2.803-1.07Zm17.221 6.697-7.564-2.896.153-.14.008-.01c.314-.368.78-.572 1.269-.548.377.042.743.18 1.06.4a4.42 4.42 0 0 0 2.264.703c2.975 0 3.769-2.706 3.769-4.306 0-.688.644-2.855 1.762-2.855.081 0 .153-.016.232-.02l-2.953 9.67Zm2.72-10.549c-.984 0-1.632.8-2.002 1.47-.454.82-.66 1.76-.66 2.285 0 .569-.139 3.406-2.864 3.406a3.565 3.565 0 0 1-1.818-.582 3.104 3.104 0 0 0-1.5-.52 2.442 2.442 0 0 0-1.906.801c-.452.42-.921.853-2.522.853-1.357 0-2.868-.947-2.868-2.306 0-1.117-1.124-3.203-3.273-3.203-2.307 0-4.08-.4-4.744-1.071a.9.9 0 0 1-.28-.674c.012-.663.397-1.03 1.126-1.152.095.087.201.163.326.21L21.866 26.1a.987.987 0 0 0 .322.054 1.01 1.01 0 0 0 .96-.744l5.836-19.573c2.364.042 2.57.567 2.57 1.2 0 1.634-.789 2.31-1.623 3.025-.827.713-1.688 1.45-1.688 3.035.003.74.32 1.45.867 1.946.53.49.819 1.185.79 1.91 0 1.842-.821 2.856-2.314 2.856Zm2.238-5.316c-.02-.019-.032-.042-.051-.06l-.004-.003a1.803 1.803 0 0 1-.625-1.335c0-1.17.64-1.719 1.38-2.353.084-.07.17-.146.256-.22l.16.315-1.116 3.656ZM5.974 3.248h-.915v2.044h.915V3.248Zm0 4.41h-.915V9.7h.915V7.657Zm2.255-1.59H6.752v.914h1.48v-.914Zm-3.946 0h-1.48v.914h1.48v-.914Z" fill="#4fd675"/><path d="M13.297 17.974h.915v-.915h-.915v.915Zm-2.955 0v-.915h-.915v.915h.915Zm6.825.744v.914h.915v-.915h-.915Zm3.87.914h.915v-.915h-.915v.915Zm-1.106-8.102v.915h.922v-.915h-.916Zm3.877 0v.915h.915v-.915h-.915Zm-1.298 3.317h-.915v.915h.914v-.915Z" fill="#4fd675"/><path d="M0 0h34v34H0z" fill="none"/></svg>