<svg xmlns="http://www.w3.org/2000/svg" width="34" height="34" viewBox="0 0 34 34"><defs><style>.a{fill:#747474;opacity:0;}.b{fill:#dc003f;}</style></defs><rect class="a" width="34" height="34"/><path class="b" d="M28.305,13.77a4.675,4.675,0,0,1-1.586-2.894,6.133,6.133,0,0,1,1.606-4.5c.009-.012.011-.026.02-.038s.025-.039.035-.06.015-.035.022-.053a.513.513,0,0,0,.016-.065.483.483,0,0,0,.009-.065.561.561,0,0,0,0-.058.462.462,0,0,0-.009-.065c0-.022-.009-.043-.016-.065s-.014-.036-.022-.054a.425.425,0,0,0-.035-.058.287.287,0,0,0-.02-.039c-.006-.008-.016-.012-.023-.02s-.009-.017-.016-.024-.018-.01-.026-.017-.01-.015-.018-.021a.291.291,0,0,0-.035-.018.5.5,0,0,0-.063-.038c-.018-.008-.035-.015-.053-.021a.485.485,0,0,0-.063-.016c-.023,0-.044-.008-.067-.01a.556.556,0,0,0-.058,0,.33.33,0,0,0-.063.009.433.433,0,0,0-.067.016.4.4,0,0,0-.053.022.436.436,0,0,0-.059.035c-.012.008-.026.01-.038.019a6.158,6.158,0,0,1-4.5,1.606A4.687,4.687,0,0,1,20.229,5.7a.5.5,0,0,0-.793.609,5.625,5.625,0,0,0,3.548,1.968,5.455,5.455,0,0,0,.664.041A5.786,5.786,0,0,0,25.2,8.088L12.717,20.576,9.04,16.9a.5.5,0,0,0-.707.707l3.677,3.677L5.646,27.646a.5.5,0,0,0,.708.708l6.363-6.364,3.677,3.677a.5.5,0,0,0,.707,0,.5.5,0,0,0,0-.707l-3.677-3.677L25.918,8.789a5.6,5.6,0,0,0-.189,2.226A5.629,5.629,0,0,0,27.7,14.564a.5.5,0,0,0,.609-.794Z" transform="translate(0.5 0.499)"/></svg>