<svg xmlns="http://www.w3.org/2000/svg" width="37.173" height="34" viewBox="0 0 37.173 34">
  <g id="technologia" transform="translate(-363.982 -360.423)">
    <rect id="Rectangle_420-9" data-name="Rectangle 420-9" width="34" height="34" transform="translate(365.568 360.423)" fill="rgba(197,5,60,0)"/>
    <g id="Group_5872" data-name="Group 5872" transform="translate(365.109 362.923)">
      <path id="Path_18392" data-name="Path 18392" d="M25.221,25.9a2.1,2.1,0,0,1-2.1,2.1H11.8a2.1,2.1,0,0,1-2.1-2.1v-5.69h-1V25.9A3.1,3.1,0,0,0,11.8,29H23.118a3.106,3.106,0,0,0,3.1-3.1v-5.69h-1Z" fill="#4da3dc" stroke="rgba(0,0,0,0)" stroke-width="1"/>
      <path id="Path_18393" data-name="Path 18393" d="M9.7,3.1A2.106,2.106,0,0,1,11.8,1H23.119a2.105,2.105,0,0,1,2.1,2.1V16.815h1V3.1a3.106,3.106,0,0,0-3.1-3.1H11.8A3.107,3.107,0,0,0,8.7,3.1V16.815h1Z" fill="#4da3dc" stroke="rgba(0,0,0,0)" stroke-width="1"/>
      <rect id="Rectangle_4667" data-name="Rectangle 4667" width="1.521" height="1" transform="translate(16.698 25.453)" fill="#4da3dc" stroke="rgba(0,0,0,0)" stroke-width="1"/>
      <path id="Path_18394" data-name="Path 18394" d="M12.995,1.646v.677a1.544,1.544,0,0,0,1.542,1.542h5.79a1.544,1.544,0,0,0,1.542-1.542V1.646h-1v.677a.542.542,0,0,1-.542.542h-5.79a.542.542,0,0,1-.542-.542V1.646Z" fill="#4da3dc" stroke="rgba(0,0,0,0)" stroke-width="1"/>
      <path id="Path_18395" data-name="Path 18395" d="M12.765,11.554a.476.476,0,0,0-.149.137.364.364,0,0,0-.035.052.487.487,0,0,0-.067.236v5.352L17.459,19.8,22.4,17.331V11.979a.487.487,0,0,0-.067-.236.364.364,0,0,0-.035-.052.476.476,0,0,0-.149-.137c-.01-.006-.015-.017-.025-.023L17.683,9.309a.5.5,0,0,0-.448,0L12.79,11.531c-.01.006-.015.017-.025.023m.749,1.234,3.445,1.722v3.925l-3.445-1.723Zm4.445,5.647V14.51L21.4,12.788v3.924Zm-.5-8.12,3.327,1.664-3.327,1.663-3.327-1.663Z" fill="#4da3dc" stroke="rgba(0,0,0,0)" stroke-width="1"/>
      <path id="Path_18396" data-name="Path 18396" d="M23.9,10.165l.411-.913L23.415,8.8l-.448.9Z" fill="#4da3dc" stroke="rgba(0,0,0,0)" stroke-width="1"/>
      <path id="Path_18397" data-name="Path 18397" d="M20.966,8.71l.9.44.44-.89-.9-.45Z" fill="#4da3dc" stroke="rgba(0,0,0,0)" stroke-width="1"/>
      <path id="Path_18398" data-name="Path 18398" d="M19.176,7.82l.89.45.45-.9-.9-.44Z" fill="#4da3dc" stroke="rgba(0,0,0,0)" stroke-width="1"/>
      <path id="Path_18399" data-name="Path 18399" d="M16.753,6.209l.479.878.227-.111.264.129.405-.914L17.68,5.97l-.258-.092Z" fill="#4da3dc" stroke="rgba(0,0,0,0)" stroke-width="1"/>
      <path id="Path_18400" data-name="Path 18400" d="M15.206,8.09l.89-.44-.44-.9-.9.45Z" fill="#4da3dc" stroke="rgba(0,0,0,0)" stroke-width="1"/>
      <path id="Path_18401" data-name="Path 18401" d="M13.406,8.98l.9-.45-.45-.89-.89.44Z" fill="#4da3dc" stroke="rgba(0,0,0,0)" stroke-width="1"/>
      <path id="Path_18402" data-name="Path 18402" d="M10.6,9.255l.442.9.933-.46-.479-.878Z" fill="#4da3dc" stroke="rgba(0,0,0,0)" stroke-width="1"/>
      <path id="Path_18403" data-name="Path 18403" d="M34.918,14.5l-7.5-3.712-.444.9L32.663,14.5l-15.2,7.524L2.255,14.5l5.689-2.815-.443-.9L0,14.5l17.459,8.64Z" fill="#4da3dc" stroke="rgba(0,0,0,0)" stroke-width="1"/>
    </g>
  </g>
</svg>
