<svg xmlns="http://www.w3.org/2000/svg" width="35.31" height="34.982" viewBox="0 0 35.31 34.982">
  <g id="teksciory" transform="translate(-392.6 -7829.583)" opacity="0.7">
    <g id="Group_3751" data-name="Group 3751" transform="translate(27.432 7469.576)">
      <rect id="Rectangle_420-9" data-name="Rectangle 420-9" width="34" height="34" transform="translate(365.568 360.423)" fill="rgba(197,5,60,0)"/>
      <g id="Group_5846" data-name="Group 5846" transform="translate(365.269 360.273)">
        <path id="Path_18394" data-name="Path 18394" d="M18.858.6a2.6,2.6,0,0,0-2.6,2.605V9.155a2.605,2.605,0,0,0,2.6,2.605H19.4a.255.255,0,0,1,.255.255v1.914a.255.255,0,0,0,.436.181l2.687-2.275a.252.252,0,0,1,.18-.075h3.764a2.606,2.606,0,0,0,2.606-2.605V3.209A2.605,2.605,0,0,0,26.717.6Z" fill="none" stroke="#9900d9" stroke-linecap="round" stroke-linejoin="round" stroke-width="0.8"/>
        <path id="Path_18395" data-name="Path 18395" d="M32.339,14.664a2.471,2.471,0,0,1,2.471,2.472v5.5a2.471,2.471,0,0,1-2.471,2.472h-.47a.239.239,0,0,0-.239.239V27.14a.239.239,0,0,1-.408.169l-2.516-2.13a.236.236,0,0,0-.169-.07H25.045a2.471,2.471,0,0,1-2.471-2.472v-5.5a2.471,2.471,0,0,1,2.471-2.472Z" fill="none" stroke="#9900d9" stroke-linecap="round" stroke-linejoin="round" stroke-width="0.8"/>
        <line id="Line_438" data-name="Line 438" x2="0.431" y2="0.431" transform="translate(8.919 0.3)" fill="none" stroke="#9900d9" stroke-linecap="round" stroke-linejoin="round" stroke-width="0.8"/>
        <line id="Line_439" data-name="Line 439" x2="0.431" y2="0.431" transform="translate(11.245 2.626)" fill="none" stroke="#9900d9" stroke-linecap="round" stroke-linejoin="round" stroke-width="0.8"/>
        <line id="Line_440" data-name="Line 440" y1="0.431" x2="0.431" transform="translate(8.919 2.626)" fill="none" stroke="#9900d9" stroke-linecap="round" stroke-linejoin="round" stroke-width="0.8"/>
        <line id="Line_441" data-name="Line 441" y1="0.431" x2="0.431" transform="translate(11.245 0.3)" fill="none" stroke="#9900d9" stroke-linecap="round" stroke-linejoin="round" stroke-width="0.8"/>
        <line id="Line_442" data-name="Line 442" y1="0.118" x2="0.118" transform="translate(4.852 4.154)" fill="none" stroke="#9900d9" stroke-linecap="round" stroke-linejoin="round" stroke-width="0.8"/>
        <line id="Line_443" data-name="Line 443" y1="0.118" x2="0.118" transform="translate(3.159 5.847)" fill="none" stroke="#9900d9" stroke-linecap="round" stroke-linejoin="round" stroke-width="0.8"/>
        <line id="Line_444" data-name="Line 444" x1="0.118" y1="0.118" transform="translate(3.159 4.154)" fill="none" stroke="#9900d9" stroke-linecap="round" stroke-linejoin="round" stroke-width="0.8"/>
        <line id="Line_445" data-name="Line 445" x1="0.118" y1="0.118" transform="translate(4.852 5.847)" fill="none" stroke="#9900d9" stroke-linecap="round" stroke-linejoin="round" stroke-width="0.8"/>
        <path id="Path_18396" data-name="Path 18396" d="M22.671,27.186a4.457,4.457,0,0,1-4.156,2.847H11.44a.384.384,0,0,0-.272.112L7.256,34.057a.825.825,0,0,1-1.408-.583V30.417a.384.384,0,0,0-.384-.384H4.755A4.456,4.456,0,0,1,.3,25.577V13.644A4.456,4.456,0,0,1,4.755,9.188h8.856" fill="none" stroke="#9900d9" stroke-linecap="round" stroke-linejoin="round" stroke-width="0.8"/>
        <path id="Path_18397" data-name="Path 18397" d="M22.744,7.358V7.247a.925.925,0,0,1,.607-.856,1.6,1.6,0,0,0,1.036-1.529,1.638,1.638,0,0,0-1.6-1.55,1.662,1.662,0,0,0-1.255.514,1.58,1.58,0,0,0-.357.592" fill="none" stroke="#9900d9" stroke-linecap="round" stroke-linejoin="round" stroke-width="0.8"/>
        <line id="Line_446" data-name="Line 446" y1="0.055" transform="translate(22.744 9.11)" fill="none" stroke="#9900d9" stroke-linecap="round" stroke-linejoin="round" stroke-width="0.8"/>
        <line id="Line_447" data-name="Line 447" y1="2.662" transform="translate(28.624 17.649)" fill="none" stroke="#9900d9" stroke-linecap="round" stroke-linejoin="round" stroke-width="0.8"/>
        <line id="Line_448" data-name="Line 448" y1="0.033" transform="translate(28.624 22.271)" fill="none" stroke="#9900d9" stroke-linecap="round" stroke-linejoin="round" stroke-width="0.8"/>
        <path id="Path_18398" data-name="Path 18398" d="M9.332,23.593a1.9,1.9,0,0,0-2.388-1.116c-1.14.239-1.918,1.125-1.74,1.98a1.9,1.9,0,0,0,2.388,1.116C8.732,25.334,9.511,24.448,9.332,23.593Z" fill="none" stroke="#9900d9" stroke-linecap="round" stroke-linejoin="round" stroke-width="0.8"/>
        <path id="Path_18399" data-name="Path 18399" d="M16.38,22.276a1.9,1.9,0,0,0-2.388-1.116c-1.14.239-1.918,1.125-1.74,1.98a1.9,1.9,0,0,0,2.388,1.116C15.78,24.017,16.559,23.131,16.38,22.276Z" fill="none" stroke="#9900d9" stroke-linecap="round" stroke-linejoin="round" stroke-width="0.8"/>
        <path id="Path_18400" data-name="Path 18400" d="M16.405,22.532V14.449L9.358,15.767V23.85" fill="none" stroke="#9900d9" stroke-linecap="round" stroke-linejoin="round" stroke-width="0.8"/>
        <line id="Line_449" data-name="Line 449" x1="7.047" y2="1.318" transform="translate(9.358 16.416)" fill="none" stroke="#9900d9" stroke-linecap="round" stroke-linejoin="round" stroke-width="0.8"/>
      </g>
    </g>
  </g>
</svg>
