<svg xmlns="http://www.w3.org/2000/svg" width="34" height="34" viewBox="0 0 34 34"><defs><style>.a{fill:#747474;opacity:0;}.b{fill:#dc003f;}</style></defs><rect class="a" width="34" height="34"/><g transform="translate(-1 -1.5)"><path class="b" d="M3.5,21.5h8.555a.5.5,0,0,0,.428-.759A6.821,6.821,0,0,1,11.5,17.2a6.611,6.611,0,0,1,6.493-6.7A6.615,6.615,0,0,1,24.5,17.208a6.82,6.82,0,0,1-.982,3.533.5.5,0,0,0,.427.759H32.5a.5.5,0,0,0,0-1H24.776a7.785,7.785,0,0,0,.724-3.285A7.618,7.618,0,0,0,17.993,9.5,7.614,7.614,0,0,0,10.5,17.208a7.819,7.819,0,0,0,.724,3.292H3.5a.5.5,0,0,0,0,1Z"/><path class="b" d="M32.5,25.5H3.5a.5.5,0,0,0,0,1h29a.5.5,0,0,0,0-1Z"/></g></svg>