<svg xmlns="http://www.w3.org/2000/svg" viewBox="0 0 34 34"><path d="M25.408 16.204a.964.964 0 0 0-.606-.481.97.97 0 0 0-.2-.022c-.724 0-1.502.824-1.81 1.917a2.665 2.665 0 0 0 .138 2.032.96.96 0 0 0 .606.481.91.91 0 0 0 .2.023c.725 0 1.503-.824 1.81-1.918a2.67 2.67 0 0 0-.138-2.032Zm3.14 4.168C26.963 24.286 23.061 28.61 17 28.61c-1.976 0-4.18-.48-5.334-1.71v.35c0 2.173 2.874 2.944 5.334 2.944 7.535 0 11.548-5.319 11.548-9.158v-.664ZM11.151 23.14c.878-2.436 3.638-3.708 6.66-4.871a3.403 3.403 0 0 0 1.308-.919l.001-.05a4.497 4.497 0 0 0-1.28-3.26 6.338 6.338 0 0 0-3.036-1.832 5.843 5.843 0 0 1-3.952-3.622l-.026-.07L7.82 9.664l.002.053c.018.416.097.83.234 1.228.163.48.25.978.26 1.483v.006a9.185 9.185 0 0 1-.434 2.473 11.52 11.52 0 0 0-.523 3.261c0 3.977 2.756 4.803 3.793 4.973Zm1.479-10.677.08.05a6.387 6.387 0 0 0 1.63.703 5.64 5.64 0 0 1 2.585 1.466l.072.072-.582.56-.07-.069a4.807 4.807 0 0 0-2.237-1.257 7.294 7.294 0 0 1-1.84-.803l-.09-.054.452-.668Zm-1.304-1.09.07.07c.109.108.224.217.343.322l.074.065-.524.613-.083-.067a8.651 8.651 0 0 1-.394-.37l-.071-.072.58-.56Z" fill="none"/><path d="M24.91 12.836a4.003 4.003 0 0 0-.259 0l-.17.006.009-.005c-1.873.076-2.598 1.442-3.364 2.885-.67 1.26-1.427 2.686-3.018 3.3-3.52 1.357-6.435 2.734-6.435 5.838 0 2.173 2.873 2.944 5.334 2.944 7.583 0 11.549-7.207 11.549-11.07.034-1.01-.325-1.97-1.012-2.705s-1.62-1.166-2.625-1.201Zm-7.986 13.86-.101-.001c-.175-.003-.357-.01-.543-.023l-.102-.007.075-.805.098.007c.152.012.313.019.477.022l.098.002-.002.806Zm6.253-2.171a9.77 9.77 0 0 1-4.944 2.097l-.1.013-.086-.802.098-.012a8.977 8.977 0 0 0 4.522-1.914l.078-.063.51.624-.078.063Zm3.147-6.067c-.408 1.449-1.496 2.503-2.587 2.503a1.66 1.66 0 0 1-.39-.046 1.767 1.767 0 0 1-1.118-.865 3.467 3.467 0 0 1-.221-2.654c.409-1.449 1.496-2.503 2.585-2.503.13 0 .263.016.392.047.477.12.884.435 1.119.864a3.47 3.47 0 0 1 .213 2.654ZM6.72 4.708c-.277 0-.54.087-.763.254a1.278 1.278 0 0 0-.506 1.016c.013.41.21.79.538 1.037L8.091 8.7 9.903 8V4.543c0-.7-.569-1.27-1.27-1.271-.516 0-.96.322-1.156.788.377.148.713.392.95.734l.063.09-.7.4-.054-.07a1.262 1.262 0 0 0-1.016-.507Z" fill="none"/><path d="M22.667 23.9a8.976 8.976 0 0 1-4.522 1.92l-.098.013.085.802.101-.013a9.77 9.77 0 0 0 4.944-2.097l.078-.063-.51-.625-.078.062Zm-6.317 1.967-.097-.007-.075.805.102.007c.185.012.368.02.542.023l.102.002.002-.806-.098-.002a8.74 8.74 0 0 1-.477-.022Zm8.642-10.927a1.685 1.685 0 0 0-.392-.047c-1.09 0-2.176 1.054-2.584 2.503a3.468 3.468 0 0 0 .213 2.654c.235.43.642.746 1.12.865.125.03.256.046.39.046 1.09 0 2.177-1.054 2.585-2.503a3.469 3.469 0 0 0-.213-2.654 1.77 1.77 0 0 0-1.119-.864Zm-1.255 5.214a.903.903 0 0 1-.2-.023.96.96 0 0 1-.607-.481 2.664 2.664 0 0 1-.139-2.032c.31-1.093 1.087-1.917 1.81-1.917a.97.97 0 0 1 .2.029.964.964 0 0 1 .608.48 2.67 2.67 0 0 1 .138 2.033c-.307 1.093-1.085 1.918-1.81 1.918Zm-12.523-7.778.076.067.524-.613-.074-.065a7.765 7.765 0 0 1-.343-.323l-.07-.07-.58.562.072.072c.126.125.26.25.395.37Zm2.895 1.612c.846.209 1.62.643 2.238 1.257l.069.069.582-.56-.072-.072a5.642 5.642 0 0 0-2.583-1.467 6.387 6.387 0 0 1-1.63-.703l-.082-.05-.45.668.094.055a7.34 7.34 0 0 0 1.842.803Z" fill="#4fd675"/><path d="M29.354 16.527a4.58 4.58 0 0 0-1.387-3.19 4.577 4.577 0 0 0-3.319-1.309c-2.483 0-3.418 1.762-4.244 3.32a22.7 22.7 0 0 1-.544.98 5.274 5.274 0 0 0-1.436-2.847 7.126 7.126 0 0 0-3.378-2.043 5.03 5.03 0 0 1-3.436-3.132.888.888 0 0 0-.827-.582c-.025 0-.048.012-.073.014V4.543c0-.98-.668-1.813-1.624-2.027a2.092 2.092 0 0 0-.455-.05c-.898 0-1.692.597-1.966 1.44a2.077 2.077 0 0 0-2.02 2.074 2.14 2.14 0 0 0 .843 1.666l1.808 1.45a.874.874 0 0 0-.263.617c.008.508.096 1.007.26 1.484.138.396.212.81.22 1.232a8.38 8.38 0 0 1-.402 2.26 12.443 12.443 0 0 0-.554 3.478c0 2.061.676 3.634 2.008 4.676.883.69 1.834.964 2.385 1.072a5.3 5.3 0 0 0-.09.945c0 .026.004.05.005.075h-.006v2.315c0 2.768 3.308 3.75 6.14 3.75 8.427 0 12.352-5.946 12.352-9.964v-4.228h-.001c0-.024.004-.05.004-.074a7.197 7.197 0 0 0 0-.207ZM17 30.194c-2.46 0-5.334-.77-5.334-2.944v-.35c1.154 1.23 3.358 1.71 5.334 1.71 6.062 0 9.964-4.324 11.548-8.238v.664c0 3.84-4.013 9.158-11.548 9.158ZM7.882 14.907a9.166 9.166 0 0 0 .433-2.474v-.006a4.82 4.82 0 0 0-.26-1.483 4.38 4.38 0 0 1-.233-1.228l-.002-.053 3.006-1.146.026.07a5.843 5.843 0 0 0 3.953 3.62 6.339 6.339 0 0 1 3.036 1.832 4.497 4.497 0 0 1 1.28 3.26v.044c-.357.39-.774.713-1.31.919-3.02 1.162-5.78 2.434-6.659 4.87-1.037-.17-3.793-.996-3.793-4.972a11.52 11.52 0 0 1 .523-3.26ZM17 27.804c-2.46 0-5.334-.771-5.334-2.944 0-3.104 2.914-4.48 6.435-5.838 1.59-.614 2.349-2.04 3.018-3.3.766-1.443 1.49-2.81 3.365-2.885l-.003.005.17-.006a3.742 3.742 0 0 1 2.885 1.193 3.746 3.746 0 0 1 1.012 2.705c0 3.863-3.966 11.07-11.548 11.07ZM7.79 5.284l.7-.4-.063-.09a2.062 2.062 0 0 0-.95-.734 1.26 1.26 0 0 1 1.156-.788 1.272 1.272 0 0 1 1.27 1.27V8l-1.813.7-2.1-1.686a1.35 1.35 0 0 1-.54-1.037c0-.398.19-.777.507-1.016a1.26 1.26 0 0 1 .763-.255c.403 0 .774.184 1.016.506l.053.07Zm7.472-1.762h.606v2.04h-.606zm3.145 2.388.483-1.8.585.156-.483 1.802zm2.828 1.356.885-1.534.525.303-.886 1.534zm2.561 1.764 1.26-1.26.428.43-1.26 1.259z" fill="#4fd675"/><path d="M0 0h34v34H0z" fill="none"/></svg>