<svg xmlns="http://www.w3.org/2000/svg" viewBox="0 0 34 34"><path d="M21.83 11.303c.294-1.472 1.784-3.02 3.056-3.666l.093-.048.353.788-.084.044c-.42.217-.876.565-1.293.973a1.91 1.91 0 0 0 1.134.381 1.924 1.924 0 0 0 1.92-1.918 3.397 3.397 0 0 0-.628-1.84 6.539 6.539 0 0 0-1.908-1.698 4.28 4.28 0 0 0-1.99-.47c-1.06 0-1.92.86-1.92 1.92 0 .54.245 1.05.645 1.41.27-.46.478-.96.572-1.5l.015-.088h.865l-.017.115a5.376 5.376 0 0 1-2.557 3.824l-.106.06 1.816 1.873.034-.17Zm3.52 17.609H8.624a.617.617 0 0 0-.613.596.61.61 0 0 0 .596.63h16.744a.614.614 0 0 0-.003-1.226ZM10.473 13.953c.413 0 .805-.138 1.133-.38-.424-.417-.89-.771-1.32-.99l-.085-.043.356-.789.094.046c1.273.63 2.79 2.165 3.125 3.645l.037.165 1.74-1.798-.1-.06a5.62 5.62 0 0 1-2.52-3.857l-.02-.116h.863l.014.083c.096.542.306 1.044.578 1.508a1.897 1.897 0 0 0 .301-2.514 1.921 1.921 0 0 0-1.577-.825h-.05a4.27 4.27 0 0 0-1.939.469 6.571 6.571 0 0 0-1.909 1.7 3.4 3.4 0 0 0-.625 1.842 1.92 1.92 0 0 0 1.92 1.914Zm18.104 5.56H5.423l.002.092c.008.414.033.825.07 1.235h9.225v.662H5.577a17.183 17.183 0 0 0 2.372 6.73c.209-.112.443-.182.696-.182h16.707c.253 0 .488.07.697.183a17.224 17.224 0 0 0 2.527-8.627l.002-.094Zm-11.77 1.989h-.662v-.662h.662v.662Z" fill="none"/><path d="M29.44 19.63a.948.948 0 0 0-.27-.686.965.965 0 0 0-.686-.29H5.52a.967.967 0 0 0-.69.29.942.942 0 0 0-.271.682 17.83 17.83 0 0 0 2.768 9.248 1.456 1.456 0 0 0-.158.65c0 .814.662 1.476 1.475 1.476h16.707c.814 0 1.476-.662 1.476-1.475 0-.233-.06-.45-.156-.647a17.825 17.825 0 0 0 2.768-9.248Zm-4.088 10.508H8.637a.61.61 0 0 1-.626-.63.617.617 0 0 1 .614-.596H25.35a.614.614 0 0 1 .003 1.226Zm.696-1.905a1.458 1.458 0 0 0-.696-.183H8.645c-.253 0-.487.07-.696.182a17.185 17.185 0 0 1-2.373-6.73h9.144v-.662H5.495a17.31 17.31 0 0 1-.07-1.235l-.002-.093h23.155l-.002.094a17.224 17.224 0 0 1-2.528 8.627Z" fill="#4fd675"/><path d="M16.146 20.84h.662v.662h-.662zm-5.671-6.025a2.76 2.76 0 0 0 1.705-.602c.36.463.64.957.744 1.42a.96.96 0 0 0 .926.748h.002c.24-.004.472-.094.65-.253l1.554-1.613a.946.946 0 0 0 .294-.98.945.945 0 0 0-.45-.571 4.5 4.5 0 0 1-1.04-.907 2.759 2.759 0 0 0 1.003-2.109c0-.742-.288-1.44-.813-1.966a2.76 2.76 0 0 0-1.964-.816 5.075 5.075 0 0 0-2.413.577 7.264 7.264 0 0 0-2.195 1.955 4.235 4.235 0 0 0-.784 2.337 2.789 2.789 0 0 0 2.78 2.78ZM9.18 10.197a6.571 6.571 0 0 1 1.91-1.7 4.277 4.277 0 0 1 1.943-.47l.049.001a1.92 1.92 0 0 1 1.888 2.26 1.898 1.898 0 0 1-.611 1.08 4.518 4.518 0 0 1-.576-1.51l-.015-.082h-.864l.018.116a5.62 5.62 0 0 0 2.522 3.858l.099.06-1.74 1.797-.036-.165c-.335-1.48-1.852-3.016-3.125-3.645l-.094-.046-.345.79.084.042c.429.22.896.573 1.32.99-.328.242-.72.38-1.133.38a1.92 1.92 0 0 1-1.92-1.914 3.4 3.4 0 0 1 .626-1.842Zm11.9 1.772.007.006c.17.147.389.229.615.23v.001a.959.959 0 0 0 .934-.75c.104-.461.385-.957.747-1.421a2.76 2.76 0 0 0 1.708.602h.01a2.79 2.79 0 0 0 2.778-2.783 4.225 4.225 0 0 0-.786-2.336 7.278 7.278 0 0 0-2.196-1.956 5.07 5.07 0 0 0-2.341-.574h-.067a2.772 2.772 0 0 0-2.316 1.25 2.75 2.75 0 0 0 .54 3.65 4.496 4.496 0 0 1-1.034.9.952.952 0 0 0-.184 1.53l1.597 1.651Zm-.993-2.43a5.376 5.376 0 0 0 2.556-3.824l.017-.115h-.865l-.015.083a4.526 4.526 0 0 1-.572 1.502c-.4-.362-.644-.87-.645-1.415 0-1.058.86-1.92 1.92-1.921a4.28 4.28 0 0 1 1.99.47 6.541 6.541 0 0 1 1.91 1.698c.384.542.601 1.18.626 1.84a1.923 1.923 0 0 1-1.92 1.918c-.412 0-.805-.14-1.133-.381.416-.408.872-.756 1.292-.973l.084-.044-.353-.788-.093.048c-1.27.647-2.762 2.194-3.056 3.665l-.034.17-1.816-1.874.107-.058Zm4.412 3.992h.662v1.71h-.66zm0 3.14h.662v.664h-.66zm-6.265-4.175h.662v2.75h-.662zm0 4.177h.662v.662h-.662zm9.398-14.1h.662v.66h-.662zm1.044 2.089h.662v.662h-.662zM14.057 3.61h.662v1.707h-.67zM8.314 2.568h.662V5.84h-.662zM5.181 6.744h.662v.662h-.662zm0 2.088h.662v.662h-.662zm1.045 6.266h.662v1.706h-.662z" fill="#4fd675"/><path d="M0 0h34v34H0z" fill="none"/></svg>